<svg xmlns="http://www.w3.org/2000/svg" class="{{ include.classes }}" viewBox="0 0 23 23">
   <path
      d="M19.363 4.773c.68.637 1 1.367.965 2.031s-.434 1.242-1.043 1.508-1.156.18-1.551-.152c-.398-.34-.656-.91-.656-1.633 0-.148.113-.164.195-.137.543.207.992.383 1.371.734-.164-.832.234-1.676.492-2.305.043-.109.156-.113.227-.047zm1.461 7.051c.211.906.07 1.691-.332 2.223a1.74 1.74 0 0 1-1.703.676c-.656-.121-1.059-.492-1.203-.992s-.043-1.121.363-1.719c.082-.121.184-.078.234-.004.34.473.617.867.734 1.367.324-.781 1.125-1.262 1.688-1.637.102-.066.195-.008.219.086zm-1.449 3.614c-.199.91-.66 1.559-1.25 1.867s-1.285.27-1.828-.121-.746-.898-.664-1.406c.086-.516.445-1.031 1.066-1.402.129-.074.199.012.215.098.105.574.184 1.051.074 1.555.629-.566 1.559-.66 2.23-.758a.13.13 0 0 1 .156.168zm0 0" />
   <path fill-rule="evenodd"
      d="M12.102 18.449c0 .473-.383.855-.855.855s-.855-.383-.855-.855.383-.855.855-.855.855.383.855.855zm0 0" />
   <path
      d="M17.77 5.953c-1.211-.383-1.316-1.191-1.316-2.496 0-.266.043-.293.25-.25 1.363.289 1.914 1.547 1.41 2.625-.082.176-.184.172-.344.121zm2.863 2.106c.52.77.672 1.551.492 2.191s-.691 1.117-1.348 1.246-1.168-.078-1.48-.492-.441-1.031-.281-1.734c.035-.145.145-.137.219-.09.484.32.887.59 1.18 1.016.02-.848.594-1.586.984-2.141.07-.098.18-.078.234.004zm-3.934 10.183c-.605.707-1.316 1.066-1.98 1.063a1.74 1.74 0 0 1-1.559-.965c-.301-.598-.238-1.145.074-1.555.316-.418.875-.703 1.594-.738.148-.008.172.102.145.188-.176.551-.328 1.012-.66 1.406.82-.207 1.688.148 2.324.375.113.039.125.152.063.227zM3.125 4.773c-.68.637-.996 1.367-.961 2.031a1.73 1.73 0 0 0 1.043 1.508c.613.266 1.152.18 1.551-.152.398-.34.656-.91.652-1.633 0-.148-.109-.164-.191-.137-.543.207-.996.383-1.371.734.164-.832-.238-1.676-.492-2.305-.047-.109-.16-.113-.23-.047zm-1.461 7.051c-.207.906-.066 1.691.332 2.223s1.047.793 1.707.676 1.059-.492 1.199-.992.043-1.121-.363-1.719c-.082-.121-.184-.078-.234-.004-.336.473-.613.867-.73 1.367-.328-.781-1.129-1.262-1.691-1.637-.098-.066-.195-.008-.219.086zm1.449 3.614c.199.91.664 1.559 1.25 1.867s1.289.27 1.832-.121.746-.898.66-1.406c-.082-.516-.441-1.031-1.062-1.402-.129-.074-.199.012-.215.098-.105.574-.184 1.051-.078 1.555-.629-.566-1.559-.66-2.227-.758-.117-.02-.18.074-.16.168zm0 0" />
   <path
      d="M4.719 5.953c1.211-.383 1.32-1.191 1.32-2.496 0-.266-.047-.293-.25-.25-1.367.289-1.918 1.547-1.414 2.625.082.176.184.172.344.121zm-2.86 2.106c-.523.77-.676 1.551-.492 2.191s.691 1.117 1.348 1.246 1.164-.078 1.477-.492.441-1.031.281-1.734c-.031-.145-.145-.137-.215-.09-.488.32-.891.59-1.18 1.016-.023-.848-.598-1.586-.984-2.141-.07-.098-.18-.078-.234.004zm3.934 10.183c.602.707 1.313 1.066 1.98 1.063a1.74 1.74 0 0 0 1.559-.965c.297-.598.238-1.145-.074-1.555-.316-.418-.875-.703-1.598-.738-.148-.008-.172.102-.145.188.176.551.328 1.012.66 1.406-.82-.207-1.684.148-2.324.375-.113.039-.121.152-.059.227zm0 0" />
   <g fill-rule="evenodd">
      <path
         d="M12.805 5.27a4.5 4.5 0 0 1 .695.996c.301.574.531 1.27.684 2.035h1.949a5.28 5.28 0 0 0-3.305-3.063zm-.004 10.031a4.31 4.31 0 0 0 .695-.992c.301-.578.535-1.27.684-2.039h1.953a5.29 5.29 0 0 1-3.309 3.063zM11.012 5.012v3.289H8.789c.141-.691.355-1.313.617-1.82.445-.844 1.012-1.359 1.605-1.469zm0 0" />
      <path
         d="M11.48 5.016c.594.109 1.16.625 1.602 1.473.266.504.477 1.125.621 1.813H11.48zm-1.792.254c-.262.273-.496.609-.695.996-.301.574-.535 1.27-.684 2.035h-1.95a5.28 5.28 0 0 1 3.305-3.063zM6.195 8.773h2.031a10.41 10.41 0 0 0-.109 1.508 11.17 11.17 0 0 0 .109 1.52H6.195a5.25 5.25 0 0 1-.223-1.516 5.2 5.2 0 0 1 .223-1.512zm2.508 0h2.309V11.8H8.703a10.02 10.02 0 0 1-.113-1.52 9.84 9.84 0 0 1 .113-1.508zm2.777 0h2.309c.074.48.113.984.113 1.512s-.039 1.035-.113 1.516H11.48zm2.782 0h2.035c.141.477.219.984.219 1.512s-.078 1.035-.219 1.516h-2.035c.07-.484.109-.992.109-1.516s-.039-1.031-.109-1.512zM8.789 12.27h2.223v3.281c-.594-.109-1.16-.625-1.602-1.473-.266-.504-.477-1.121-.621-1.809zm2.691 0h2.223c-.145.691-.355 1.309-.621 1.816-.441.844-1.008 1.363-1.602 1.469zm0 0" />
      <path
         d="M9.688 15.301c-.258-.273-.492-.609-.695-.992-.301-.578-.531-1.27-.684-2.039H6.359a5.28 5.28 0 0 0 3.305 3.063zm0 0" />
   </g>
</svg>