<svg xmlns="http://www.w3.org/2000/svg" xmlns:xlink="http://www.w3.org/1999/xlink"
    class="{{ include.classes }}" version="1.1" x="0px" y="0px" viewBox="0 0 90 112.5"
    enable-background="new 0 0 90 90" xml:space="preserve"><polygon points="44.98,26.516 68.22,37.323 68.22,39.24 44.98,50.042 21.742,39.24 21.742,37.323 "/><path d="M32.944,46.422c-1.838,2.036-2.114,4.52-2.136,7.88l14.172,6.854l14.172-6.854c-0.015-3.36-0.292-5.844-2.135-7.88  L44.98,52.016L32.944,46.422z"/><path d="M77.46,19.094c2.713,2.552,3.994,5.469,3.848,8.125c-0.15,2.641-1.724,4.963-4.17,6.031  c-2.448,1.072-4.615,0.719-6.199-0.615c-1.599-1.344-2.631-3.637-2.62-6.527c0-0.587,0.442-0.661,0.77-0.535  c2.178,0.816,3.98,1.521,5.486,2.922c-0.652-3.317,0.942-6.697,1.973-9.208C76.726,18.844,77.179,18.829,77.46,19.094z"/><path d="M83.299,47.297c0.839,3.63,0.276,6.766-1.324,8.891c-1.588,2.114-4.187,3.172-6.817,2.697  c-2.631-0.474-4.24-1.969-4.813-3.958c-0.578-2.005-0.167-4.485,1.454-6.88c0.328-0.491,0.738-0.308,0.943-0.021  c1.348,1.891,2.457,3.479,2.932,5.479c1.301-3.12,4.505-5.042,6.755-6.559C82.83,46.682,83.21,46.917,83.299,47.297z"/><path d="M77.507,61.755c-0.797,3.641-2.646,6.234-5.005,7.474c-2.338,1.225-5.145,1.063-7.317-0.489s-2.986-3.594-2.647-5.636  c0.333-2.063,1.771-4.125,4.262-5.594c0.505-0.302,0.796,0.042,0.859,0.386c0.412,2.286,0.729,4.192,0.297,6.208  c2.516-2.266,6.235-2.63,8.916-3.031C77.345,61.005,77.589,61.38,77.507,61.755z"/><path fill-rule="evenodd" clip-rule="evenodd" d="M48.403,73.797c0,1.885-1.532,3.422-3.423,3.422s-3.421-1.537-3.421-3.422  c0-1.891,1.531-3.428,3.421-3.428S48.403,71.907,48.403,73.797z"/><path d="M71.084,23.813c-4.848-1.533-5.276-4.771-5.276-9.98c0-1.066,0.178-1.176,1-1.004c5.464,1.156,7.663,6.188,5.652,10.5  C72.127,24.032,71.72,24.016,71.084,23.813z"/><path d="M82.527,32.235c2.089,3.088,2.699,6.212,1.969,8.771c-0.719,2.547-2.766,4.469-5.391,4.974  c-2.625,0.506-4.661-0.313-5.912-1.963c-1.26-1.662-1.771-4.127-1.124-6.943c0.134-0.574,0.577-0.547,0.875-0.354  c1.938,1.275,3.542,2.359,4.708,4.056c0.089-3.386,2.385-6.328,3.943-8.552C81.871,31.833,82.313,31.917,82.527,32.235z"/><path d="M66.794,72.963c-2.412,2.839-5.257,4.266-7.923,4.256c-2.64-0.016-5.041-1.469-6.233-3.859  c-1.193-2.391-0.953-4.573,0.296-6.219c1.265-1.667,3.5-2.818,6.385-2.948c0.589-0.031,0.688,0.406,0.578,0.745  c-0.704,2.208-1.317,4.047-2.641,5.618c3.281-0.816,6.74,0.605,9.298,1.5C67.007,72.219,67.043,72.666,66.794,72.963z"/><path d="M12.501,19.094c-2.713,2.552-3.989,5.469-3.844,8.125c0.146,2.641,1.719,4.963,4.172,6.031  c2.448,1.072,4.615,0.719,6.197-0.615c1.595-1.344,2.631-3.637,2.615-6.527c0-0.587-0.443-0.661-0.771-0.535  c-2.172,0.816-3.973,1.521-5.483,2.922c0.656-3.317-0.943-6.697-1.97-9.208C13.236,18.844,12.782,18.829,12.501,19.094z"/><path d="M6.663,47.297c-0.833,3.63-0.276,6.766,1.323,8.891c1.589,2.114,4.193,3.172,6.822,2.697  c2.631-0.474,4.235-1.969,4.808-3.958c0.578-2.005,0.167-4.485-1.453-6.88c-0.328-0.491-0.735-0.308-0.943-0.021  c-1.35,1.891-2.459,3.479-2.926,5.479c-1.303-3.12-4.511-5.042-6.762-6.559C7.137,46.682,6.75,46.917,6.663,47.297z"/><path d="M12.454,61.755c0.802,3.641,2.651,6.234,5.006,7.474c2.344,1.225,5.146,1.063,7.317-0.489  c2.177-1.552,2.984-3.594,2.65-5.636c-0.338-2.063-1.77-4.125-4.26-5.594c-0.505-0.302-0.797,0.042-0.86,0.386  c-0.411,2.286-0.733,4.192-0.302,6.208c-2.516-2.266-6.234-2.63-8.912-3.031C12.621,61.005,12.37,61.38,12.454,61.755z"/><path d="M18.876,23.813c4.849-1.533,5.282-4.771,5.282-9.98c0-1.066-0.183-1.176-1-1.004c-5.468,1.156-7.667,6.188-5.651,10.5  C17.834,24.032,18.241,24.016,18.876,23.813z"/><path d="M7.434,32.235c-2.088,3.088-2.692,6.212-1.968,8.771c0.724,2.547,2.771,4.469,5.395,4.974  c2.62,0.506,4.658-0.313,5.912-1.963c1.26-1.662,1.765-4.127,1.12-6.943c-0.131-0.574-0.579-0.547-0.869-0.354  c-1.942,1.275-3.548,2.359-4.709,4.056c-0.093-3.386-2.391-6.328-3.943-8.552C8.094,31.833,7.652,31.917,7.434,32.235z"/><path d="M23.168,72.963c2.412,2.839,5.26,4.266,7.921,4.256c2.641-0.016,5.048-1.469,6.24-3.859  c1.193-2.391,0.948-4.573-0.303-6.219c-1.266-1.667-3.495-2.818-6.386-2.948c-0.588-0.031-0.681,0.406-0.577,0.745  c0.708,2.208,1.317,4.047,2.646,5.618c-3.287-0.816-6.739,0.605-9.296,1.5C22.96,72.219,22.917,72.666,23.168,72.963z"/></svg>