<svg xmlns="http://www.w3.org/2000/svg" width="1401" height="935" fill="none" class="{{ include.classes }}" viewBox="0 0 1401 935"><g filter="url(#filter0_f_362_25)"><path fill="#1EB1FB" d="M209.427 278.74C196.38 264.782 197.119 242.891 211.076 229.845C225.034 216.799 246.924 217.537 259.971 231.494L545.257 536.7C558.303 550.657 557.565 572.548 543.607 585.594C529.65 598.641 507.759 597.902 494.713 583.945L209.427 278.74Z"/><path fill="#547CF8" d="M534.546 418.399C521.5 404.442 522.238 382.551 536.196 369.504C550.153 356.458 572.044 357.196 585.09 371.154L870.376 676.359C883.423 690.316 882.684 712.207 868.727 725.254C854.77 738.3 832.879 737.562 819.832 723.604L534.546 418.399Z"/><path fill="#F87002" d="M854.954 363.553C841.908 349.596 842.646 327.705 856.603 314.659C870.561 301.612 892.451 302.351 905.498 316.308L1190.78 621.514C1203.83 635.471 1203.09 657.362 1189.13 670.408C1175.18 683.455 1153.29 682.716 1140.24 668.759L854.954 363.553Z"/><path fill="#F264B0" d="M564.388 258.322C551.342 244.364 552.08 222.473 566.038 209.427C579.995 196.381 601.886 197.119 614.932 211.076L900.218 516.282C913.265 530.239 912.526 552.13 898.569 565.176C884.611 578.223 862.721 577.484 849.674 563.527L564.388 258.322Z"/></g><defs><filter id="filter0_f_362_25" width="1400" height="934.47" x=".105" y=".105" color-interpolation-filters="sRGB" filterUnits="userSpaceOnUse"><feFlood flood-opacity="0" result="BackgroundImageFix"/><feBlend in="SourceGraphic" in2="BackgroundImageFix" mode="normal" result="shape"/><feGaussianBlur result="effect1_foregroundBlur_362_25" stdDeviation="100"/></filter></defs></svg>