<svg class="fill-musubi-100 me-2" xmlns="http://www.w3.org/2000/svg" xmlns:xlink="http://www.w3.org/1999/xlink" width="150px" height="150px" viewBox="0 0 23 23" version="1.1">
    <g id="surface1">
        <path style=" stroke:none;fill-rule:nonzero;fill-opacity:1;" d="M 19.363281 4.773438 C 20.042969 5.410156 20.363281 6.140625 20.328125 6.804688 C 20.289062 7.464844 19.894531 8.046875 19.285156 8.3125 C 18.671875 8.578125 18.128906 8.492188 17.734375 8.160156 C 17.335938 7.820312 17.078125 7.25 17.078125 6.527344 C 17.078125 6.378906 17.191406 6.363281 17.273438 6.390625 C 17.816406 6.597656 18.265625 6.773438 18.644531 7.125 C 18.480469 6.292969 18.878906 5.449219 19.136719 4.820312 C 19.179688 4.710938 19.292969 4.707031 19.363281 4.773438 Z M 19.363281 4.773438 "/>
        <path style=" stroke:none;fill-rule:nonzero;fill-opacity:1;" d="M 20.824219 11.824219 C 21.035156 12.730469 20.894531 13.515625 20.492188 14.046875 C 20.097656 14.574219 19.445312 14.839844 18.789062 14.722656 C 18.132812 14.601562 17.730469 14.230469 17.585938 13.730469 C 17.441406 13.230469 17.542969 12.609375 17.949219 12.011719 C 18.03125 11.890625 18.132812 11.933594 18.183594 12.007812 C 18.523438 12.480469 18.800781 12.875 18.917969 13.375 C 19.242188 12.59375 20.042969 12.113281 20.605469 11.738281 C 20.707031 11.671875 20.800781 11.730469 20.824219 11.824219 Z M 20.824219 11.824219 "/>
        <path style=" stroke:none;fill-rule:nonzero;fill-opacity:1;" d="M 19.375 15.4375 C 19.175781 16.347656 18.714844 16.996094 18.125 17.304688 C 17.539062 17.613281 16.839844 17.574219 16.296875 17.183594 C 15.753906 16.796875 15.550781 16.285156 15.632812 15.777344 C 15.71875 15.261719 16.078125 14.746094 16.699219 14.375 C 16.828125 14.300781 16.898438 14.386719 16.914062 14.472656 C 17.019531 15.046875 17.097656 15.523438 16.988281 16.027344 C 17.617188 15.460938 18.546875 15.367188 19.21875 15.269531 C 19.335938 15.25 19.398438 15.34375 19.375 15.4375 Z M 19.375 15.4375 "/>
        <path style=" stroke:none;fill-rule:evenodd;fill-opacity:1;" d="M 12.101562 18.449219 C 12.101562 18.921875 11.71875 19.304688 11.246094 19.304688 C 10.773438 19.304688 10.390625 18.921875 10.390625 18.449219 C 10.390625 17.976562 10.773438 17.59375 11.246094 17.59375 C 11.71875 17.59375 12.101562 17.976562 12.101562 18.449219 Z M 12.101562 18.449219 "/>
        <path style=" stroke:none;fill-rule:nonzero;fill-opacity:1;" d="M 17.769531 5.953125 C 16.558594 5.570312 16.453125 4.761719 16.453125 3.457031 C 16.453125 3.191406 16.496094 3.164062 16.703125 3.207031 C 18.066406 3.496094 18.617188 4.753906 18.113281 5.832031 C 18.03125 6.007812 17.929688 6.003906 17.769531 5.953125 Z M 17.769531 5.953125 "/>
        <path style=" stroke:none;fill-rule:nonzero;fill-opacity:1;" d="M 20.632812 8.058594 C 21.152344 8.828125 21.304688 9.609375 21.125 10.25 C 20.945312 10.886719 20.433594 11.367188 19.777344 11.496094 C 19.121094 11.621094 18.609375 11.417969 18.296875 11.003906 C 17.984375 10.589844 17.855469 9.972656 18.015625 9.269531 C 18.050781 9.125 18.160156 9.132812 18.234375 9.179688 C 18.71875 9.5 19.121094 9.769531 19.414062 10.195312 C 19.433594 9.347656 20.007812 8.609375 20.398438 8.054688 C 20.46875 7.957031 20.578125 7.976562 20.632812 8.058594 Z M 20.632812 8.058594 "/>
        <path style=" stroke:none;fill-rule:nonzero;fill-opacity:1;" d="M 16.699219 18.242188 C 16.09375 18.949219 15.382812 19.308594 14.71875 19.304688 C 14.058594 19.300781 13.457031 18.9375 13.160156 18.339844 C 12.859375 17.742188 12.921875 17.195312 13.234375 16.785156 C 13.550781 16.367188 14.109375 16.082031 14.828125 16.046875 C 14.976562 16.039062 15 16.148438 14.972656 16.234375 C 14.796875 16.785156 14.644531 17.246094 14.3125 17.640625 C 15.132812 17.433594 16 17.789062 16.636719 18.015625 C 16.75 18.054688 16.761719 18.167969 16.699219 18.242188 Z M 16.699219 18.242188 "/>
        <path style=" stroke:none;fill-rule:nonzero;fill-opacity:1;" d="M 3.125 4.773438 C 2.445312 5.410156 2.128906 6.140625 2.164062 6.804688 C 2.199219 7.464844 2.59375 8.046875 3.207031 8.3125 C 3.820312 8.578125 4.359375 8.492188 4.757812 8.160156 C 5.15625 7.820312 5.414062 7.25 5.410156 6.527344 C 5.410156 6.378906 5.300781 6.363281 5.21875 6.390625 C 4.675781 6.597656 4.222656 6.773438 3.847656 7.125 C 4.011719 6.292969 3.609375 5.449219 3.355469 4.820312 C 3.308594 4.710938 3.195312 4.707031 3.125 4.773438 Z M 3.125 4.773438 "/>
        <path style=" stroke:none;fill-rule:nonzero;fill-opacity:1;" d="M 1.664062 11.824219 C 1.457031 12.730469 1.597656 13.515625 1.996094 14.046875 C 2.394531 14.574219 3.042969 14.839844 3.703125 14.722656 C 4.359375 14.601562 4.761719 14.230469 4.902344 13.730469 C 5.046875 13.230469 4.945312 12.609375 4.539062 12.011719 C 4.457031 11.890625 4.355469 11.933594 4.304688 12.007812 C 3.96875 12.480469 3.691406 12.875 3.574219 13.375 C 3.246094 12.59375 2.445312 12.113281 1.882812 11.738281 C 1.785156 11.671875 1.6875 11.730469 1.664062 11.824219 Z M 1.664062 11.824219 "/>
        <path style=" stroke:none;fill-rule:nonzero;fill-opacity:1;" d="M 3.113281 15.4375 C 3.3125 16.347656 3.777344 16.996094 4.363281 17.304688 C 4.949219 17.613281 5.652344 17.574219 6.195312 17.183594 C 6.738281 16.796875 6.941406 16.285156 6.855469 15.777344 C 6.773438 15.261719 6.414062 14.746094 5.792969 14.375 C 5.664062 14.300781 5.59375 14.386719 5.578125 14.472656 C 5.472656 15.046875 5.394531 15.523438 5.5 16.027344 C 4.871094 15.460938 3.941406 15.367188 3.273438 15.269531 C 3.15625 15.25 3.09375 15.34375 3.113281 15.4375 Z M 3.113281 15.4375 "/>
        <path style=" stroke:none;fill-rule:nonzero;fill-opacity:1;" d="M 4.71875 5.953125 C 5.929688 5.570312 6.039062 4.761719 6.039062 3.457031 C 6.039062 3.191406 5.992188 3.164062 5.789062 3.207031 C 4.421875 3.496094 3.871094 4.753906 4.375 5.832031 C 4.457031 6.007812 4.558594 6.003906 4.71875 5.953125 Z M 4.71875 5.953125 "/>
        <path style=" stroke:none;fill-rule:nonzero;fill-opacity:1;" d="M 1.859375 8.058594 C 1.335938 8.828125 1.183594 9.609375 1.367188 10.25 C 1.546875 10.886719 2.058594 11.367188 2.714844 11.496094 C 3.371094 11.621094 3.878906 11.417969 4.191406 11.003906 C 4.507812 10.589844 4.632812 9.972656 4.472656 9.269531 C 4.441406 9.125 4.328125 9.132812 4.257812 9.179688 C 3.769531 9.5 3.367188 9.769531 3.078125 10.195312 C 3.054688 9.347656 2.480469 8.609375 2.09375 8.054688 C 2.023438 7.957031 1.914062 7.976562 1.859375 8.058594 Z M 1.859375 8.058594 "/>
        <path style=" stroke:none;fill-rule:nonzero;fill-opacity:1;" d="M 5.792969 18.242188 C 6.394531 18.949219 7.105469 19.308594 7.773438 19.304688 C 8.433594 19.300781 9.035156 18.9375 9.332031 18.339844 C 9.628906 17.742188 9.570312 17.195312 9.257812 16.785156 C 8.941406 16.367188 8.382812 16.082031 7.660156 16.046875 C 7.511719 16.039062 7.488281 16.148438 7.515625 16.234375 C 7.691406 16.785156 7.84375 17.246094 8.175781 17.640625 C 7.355469 17.433594 6.492188 17.789062 5.851562 18.015625 C 5.738281 18.054688 5.730469 18.167969 5.792969 18.242188 Z M 5.792969 18.242188 "/>
        <path style=" stroke:none;fill-rule:evenodd;fill-opacity:1;" d="M 12.804688 5.269531 C 13.0625 5.542969 13.296875 5.878906 13.5 6.265625 C 13.800781 6.839844 14.03125 7.535156 14.183594 8.300781 L 16.132812 8.300781 C 15.546875 6.84375 14.332031 5.710938 12.828125 5.238281 Z M 12.804688 5.269531 "/>
        <path style=" stroke:none;fill-rule:evenodd;fill-opacity:1;" d="M 12.800781 15.300781 C 13.0625 15.027344 13.296875 14.691406 13.496094 14.308594 C 13.796875 13.730469 14.03125 13.039062 14.179688 12.269531 L 16.132812 12.269531 C 15.542969 13.726562 14.332031 14.859375 12.824219 15.332031 Z M 12.800781 15.300781 "/>
        <path style=" stroke:none;fill-rule:evenodd;fill-opacity:1;" d="M 11.011719 5.011719 L 11.011719 8.300781 L 8.789062 8.300781 C 8.929688 7.609375 9.144531 6.988281 9.40625 6.480469 C 9.851562 5.636719 10.417969 5.121094 11.011719 5.011719 Z M 11.011719 5.011719 "/>
        <path style=" stroke:none;fill-rule:evenodd;fill-opacity:1;" d="M 11.480469 5.015625 C 12.074219 5.125 12.640625 5.640625 13.082031 6.488281 C 13.347656 6.992188 13.558594 7.613281 13.703125 8.300781 L 11.480469 8.300781 Z M 11.480469 5.015625 "/>
        <path style=" stroke:none;fill-rule:evenodd;fill-opacity:1;" d="M 9.6875 5.269531 C 9.425781 5.542969 9.191406 5.878906 8.992188 6.265625 C 8.691406 6.839844 8.457031 7.535156 8.308594 8.300781 L 6.359375 8.300781 C 6.945312 6.84375 8.160156 5.710938 9.664062 5.238281 Z M 9.6875 5.269531 "/>
        <path style=" stroke:none;fill-rule:evenodd;fill-opacity:1;" d="M 6.195312 8.773438 L 8.226562 8.773438 C 8.15625 9.253906 8.117188 9.757812 8.117188 10.28125 C 8.117188 10.808594 8.160156 11.316406 8.226562 11.800781 L 6.195312 11.800781 C 6.050781 11.320312 5.972656 10.8125 5.972656 10.285156 C 5.972656 9.757812 6.050781 9.25 6.195312 8.773438 Z M 6.195312 8.773438 "/>
        <path style=" stroke:none;fill-rule:evenodd;fill-opacity:1;" d="M 8.703125 8.773438 L 11.011719 8.773438 L 11.011719 11.800781 L 8.703125 11.800781 C 8.628906 11.320312 8.589844 10.808594 8.589844 10.28125 C 8.589844 9.757812 8.628906 9.25 8.703125 8.773438 Z M 8.703125 8.773438 "/>
        <path style=" stroke:none;fill-rule:evenodd;fill-opacity:1;" d="M 11.480469 8.773438 L 13.789062 8.773438 C 13.863281 9.253906 13.902344 9.757812 13.902344 10.285156 C 13.902344 10.8125 13.863281 11.320312 13.789062 11.800781 L 11.480469 11.800781 Z M 11.480469 8.773438 "/>
        <path style=" stroke:none;fill-rule:evenodd;fill-opacity:1;" d="M 14.261719 8.773438 L 16.296875 8.773438 C 16.4375 9.25 16.515625 9.757812 16.515625 10.285156 C 16.515625 10.8125 16.4375 11.320312 16.296875 11.800781 L 14.261719 11.800781 C 14.332031 11.316406 14.371094 10.808594 14.371094 10.285156 C 14.371094 9.761719 14.332031 9.253906 14.261719 8.773438 Z M 14.261719 8.773438 "/>
        <path style=" stroke:none;fill-rule:evenodd;fill-opacity:1;" d="M 8.789062 12.269531 L 11.011719 12.269531 L 11.011719 15.550781 C 10.417969 15.441406 9.851562 14.925781 9.410156 14.078125 C 9.144531 13.574219 8.933594 12.957031 8.789062 12.269531 Z M 8.789062 12.269531 "/>
        <path style=" stroke:none;fill-rule:evenodd;fill-opacity:1;" d="M 11.480469 12.269531 L 13.703125 12.269531 C 13.558594 12.960938 13.347656 13.578125 13.082031 14.085938 C 12.640625 14.929688 12.074219 15.449219 11.480469 15.554688 Z M 11.480469 12.269531 "/>
        <path style=" stroke:none;fill-rule:evenodd;fill-opacity:1;" d="M 9.6875 15.300781 C 9.429688 15.027344 9.195312 14.691406 8.992188 14.308594 C 8.691406 13.730469 8.460938 13.039062 8.308594 12.269531 L 6.359375 12.269531 C 6.945312 13.726562 8.160156 14.859375 9.664062 15.332031 Z M 9.6875 15.300781 "/>
    </g>
</svg>
