<svg xmlns="http://www.w3.org/2000/svg" width="1003" height="1003" fill="none" class="{{ include.classes }}" viewBox="0 0 1003 1003"><path stroke="url(#radial_bottom_right)" d="M78 1H1V78M78 1V78M78 1H155M78 78H1M78 78H155M78 78V155M1 78V155M155 1V78M155 1H232M155 78H232M155 78V155M232 1V78M232 1H309M232 78H309M232 78V155M309 1V78M309 1H386M309 78H386M309 78V155M386 1V78M386 1H463M386 78H463M386 78V155M463 1V78M463 1H540M463 78H540M463 78V155M540 1V78M540 1H617M540 78H617M540 78V155M617 1V78M617 1H694M617 78H694M617 78V155M694 1V78M694 1H771M694 78H771M694 78V155M771 1V78M771 1H848M771 78H848M771 78V155M848 1V78M848 1H925M848 78H925M848 78V155M925 1V78M925 1H1002V78M925 78H1002M925 78V155M1002 78V155M78 155H1M78 155H155M78 155V232M1 155V232M155 155H232M155 155V232M232 155H309M232 155V232M309 155H386M309 155V232M386 155H463M386 155V232M463 155H540M463 155V232M540 155H617M540 155V232M617 155H694M617 155V232M694 155H771M694 155V232M771 155H848M771 155V232M848 155H925M848 155V232M925 155H1002M925 155V232M1002 155V232M78 232H1M78 232H155M78 232V309M1 232V309M155 232H232M155 232V309M232 232H309M232 232V309M309 232H386M309 232V309M386 232H463M386 232V309M463 232H540M463 232V309M540 232H617M540 232V309M617 232H694M617 232V309M694 232H771M694 232V309M771 232H848M771 232V309M848 232H925M848 232V309M925 232H1002M925 232V309M1002 232V309M78 309H1M78 309H155M78 309V386M1 309V386M155 309H232M155 309V386M232 309H309M232 309V386M309 309H386M309 309V386M386 309H463M386 309V386M463 309H540M463 309V386M540 309H617M540 309V386M617 309H694M617 309V386M694 309H771M694 309V386M771 309H848M771 309V386M848 309H925M848 309V386M925 309H1002M925 309V386M1002 309V386M78 386H1M78 386H155M78 386V463M1 386V463M155 386H232M155 386V463M232 386H309M232 386V463M309 386H386M309 386V463M386 386H463M386 386V463M463 386H540M463 386V463M540 386H617M540 386V463M617 386H694M617 386V463M694 386H771M694 386V463M771 386H848M771 386V463M848 386H925M848 386V463M925 386H1002M925 386V463M1002 386V463M78 463H1M78 463H155M78 463V540M1 463V540M155 463H232M155 463V540M232 463H309M232 463V540M309 463H386M309 463V540M386 463H463M386 463V540M463 463H540M463 463V540M540 463H617M540 463V540M617 463H694M617 463V540M694 463H771M694 463V540M771 463H848M771 463V540M848 463H925M848 463V540M925 463H1002M925 463V540M1002 463V540M78 540H1M78 540H155M78 540V617M1 540V617M155 540H232M155 540V617M232 540H309M232 540V617M309 540H386M309 540V617M386 540H463M386 540V617M463 540H540M463 540V617M540 540H617M540 540V617M617 540H694M617 540V617M694 540H771M694 540V617M771 540H848M771 540V617M848 540H925M848 540V617M925 540H1002M925 540V617M1002 540V617M78 617H1M78 617H155M78 617V694M1 617V694M155 617H232M155 617V694M232 617H309M232 617V694M309 617H386M309 617V694M386 617H463M386 617V694M463 617H540M463 617V694M540 617H617M540 617V694M617 617H694M617 617V694M694 617H771M694 617V694M771 617H848M771 617V694M848 617H925M848 617V694M925 617H1002M925 617V694M1002 617V694M78 694H1M78 694H155M78 694V771M1 694V771M155 694H232M155 694V771M232 694H309M232 694V771M309 694H386M309 694V771M386 694H463M386 694V771M463 694H540M463 694V771M540 694H617M540 694V771M617 694H694M617 694V771M694 694H771M694 694V771M771 694H848M771 694V771M848 694H925M848 694V771M925 694H1002M925 694V771M1002 694V771M78 771H1M78 771H155M78 771V848M1 771V848M155 771H232M155 771V848M232 771H309M232 771V848M309 771H386M309 771V848M386 771H463M386 771V848M463 771H540M463 771V848M540 771H617M540 771V848M617 771H694M617 771V848M694 771H771M694 771V848M771 771H848M771 771V848M848 771H925M848 771V848M925 771H1002M925 771V848M1002 771V848M78 848H1M78 848H155M78 848V925M1 848V925M155 848H232M155 848V925M232 848H309M232 848V925M309 848H386M309 848V925M386 848H463M386 848V925M463 848H540M463 848V925M540 848H617M540 848V925M617 848H694M617 848V925M694 848H771M694 848V925M771 848H848M771 848V925M848 848H925M848 848V925M925 848H1002M925 848V925M1002 848V925M78 925H1M78 925H155M78 925V1002M1 925V1002H78M155 925H232M155 925V1002M232 925H309M232 925V1002M309 925H386M309 925V1002M386 925H463M386 925V1002M463 925H540M463 925V1002M540 925H617M540 925V1002M617 925H694M617 925V1002M694 925H771M694 925V1002M771 925H848M771 925V1002M848 925H925M848 925V1002M925 925H1002M925 925V1002M1002 925V1002H925M78 1002H155M155 1002H232M232 1002H309M309 1002H386M386 1002H463M463 1002H540M540 1002H617M617 1002H694M694 1002H771M771 1002H848M848 1002H925"/><defs><radialGradient id="radial_bottom_right" cx="0" cy="0" r="1" gradientTransform="translate(1003 1003) rotate(-135) scale(1000)" gradientUnits="userSpaceOnUse"><stop offset="0" stop-color="#2C3252"/><stop offset="1" stop-color="#010100"/></radialGradient></defs></svg>