<svg xmlns="http://www.w3.org/2000/svg" width="1344" height="1310" fill="none" class="{{ include.classes }}" role="img" viewBox="0 0 1344 1310"><path d="M220.304 813.71L251.156 818.1C268.196 820.525 280.039 836.33 277.61 853.402L259.638 979.684C276.707 988.606 287.141 1007.61 284.268 1027.8C280.623 1053.41 256.95 1071.22 231.391 1067.58C205.832 1063.95 188.067 1040.24 191.711 1014.63C194.584 994.443 209.906 979.1 228.786 975.293L246.758 849.011L215.905 844.621L209.307 890.987L148.688 819.286L226.903 767.343L220.304 813.71ZM57.6212 850.94C40.5527 842.017 30.119 823.01 32.992 802.822C36.6362 777.214 60.31 759.404 85.8687 763.041C111.427 766.679 129.193 790.386 125.548 815.993C122.675 836.182 107.353 851.524 88.4734 855.331L74.5256 953.34C91.5942 962.263 102.028 981.271 99.1548 1001.46C95.5105 1027.07 71.8369 1044.88 46.2782 1041.24C20.7195 1037.6 2.9541 1013.9 6.5984 988.287C9.47135 968.099 24.7935 952.756 43.6735 948.949L57.6212 850.94ZM77.0708 824.863C85.5903 826.075 93.4816 820.139 94.6963 811.603C95.911 803.067 89.9892 795.165 81.4697 793.952C72.9502 792.74 65.0589 798.677 63.8442 807.212C62.6295 815.748 68.5513 823.651 77.0708 824.863ZM50.6771 1010.33C59.1967 1011.54 67.0879 1005.6 68.3027 997.068C69.5174 988.532 63.5956 980.63 55.0761 979.417C46.5566 978.205 38.6653 984.141 37.4505 992.678C36.2358 1001.21 42.1576 1009.12 50.6771 1010.33ZM235.79 1036.67C244.31 1037.88 252.201 1031.95 253.416 1023.41C254.63 1014.88 248.709 1006.97 240.189 1005.76C231.669 1004.55 223.778 1010.48 222.563 1019.02C221.349 1027.56 227.27 1035.46 235.79 1036.67Z"/><path d="M379.233 800.098C376.349 797.675 373.961 794.734 371.238 790.649C370.253 789.172 366.299 782.919 367.063 784.115C362.915 777.623 360.185 774.527 357.18 773.062C351.998 770.537 349.845 764.288 352.371 759.107C354.897 753.924 361.146 751.771 366.328 754.297C373.83 757.955 378.584 763.356 384.728 772.99C383.886 771.67 387.764 777.803 388.609 779.071C390.327 781.648 391.618 783.237 392.665 784.117C394.635 785.774 398.545 786.823 404.447 786.879C405.126 782.94 406.281 779.175 407.79 775.744C377.817 764.84 362.567 743.057 366.839 704.09C368.249 691.236 373.351 680.067 381.563 671.137C380.321 661.615 381.892 650.435 388.325 638.366C389.8 635.599 392.441 633.641 395.518 633.035C396.397 632.882 396.881 632.824 397.735 632.787C406.206 632.421 417.639 636.758 431.928 648.052C441.152 646.915 450.686 646.87 460.156 647.909C469.616 648.946 478.906 651.053 487.657 654.156C504.038 646.158 516.167 644.406 524.409 646.675C525.272 646.912 526.005 647.179 526.609 647.453C529.42 648.73 531.521 651.185 532.348 654.159C536.012 667.332 535.124 678.584 531.85 687.611C537.953 698.11 540.5 710.032 539.08 722.977C534.806 761.96 515.264 779.853 483.638 784.021C484.462 788.469 484.619 793.354 484.048 798.558C483.292 805.452 482.544 812.033 481.686 819.41C481.457 821.382 481.21 823.489 480.832 826.725C484.633 828.012 487.512 831.444 487.888 835.698C488.395 841.44 484.152 846.507 478.409 847.015C466.329 848.082 458.435 839.24 459.565 828.94C459.667 828.003 459.822 826.665 460.096 824.309C460.476 821.064 460.721 818.964 460.95 816.998C461.802 809.663 462.546 803.126 463.296 796.283C464.089 789.047 462.706 784.122 460.425 781.675C454.215 775.011 458.924 764.146 468.034 764.122C499.193 764.039 514.713 753.676 518.329 720.702C519.415 710.796 517.077 702.251 511.59 694.718C509.235 691.485 508.935 687.192 510.816 683.663C513.007 679.553 514.358 674.001 513.639 667.026L513.539 667.042C508.276 667.927 501.517 670.346 493.174 674.773C490.453 676.216 487.234 676.384 484.378 675.232C476.129 671.905 467.116 669.673 457.881 668.661C448.644 667.648 439.362 667.874 430.589 669.334C427.567 669.837 424.476 668.987 422.136 667.009C414.904 660.897 408.794 657.07 403.82 655.054C401.588 661.669 401.707 667.361 402.952 671.835C404.023 675.688 402.799 679.814 399.801 682.46C392.859 688.583 388.668 696.551 387.591 706.366C383.982 739.277 396.893 752.839 427.132 759.637C436 761.63 438.261 773.216 430.793 778.397C428.606 779.915 425.508 785.504 424.789 792.06L421.206 824.734C420.084 834.968 410.58 841.691 399.133 838.368C393.597 836.761 390.412 830.971 392.018 825.434C393.236 821.24 396.856 818.394 400.947 817.961L402.073 807.694C392.56 807.294 384.93 804.887 379.233 800.098Z"/><path d="M1095.44 343L1076.53 440.042H1098.55L1108.01 391.521H1124.53C1130.61 391.521 1134.6 396.349 1133.44 402.304L1126.08 440.042H1148.11L1155.46 402.304C1158.94 384.439 1146.98 369.956 1128.73 369.956H1112.21L1117.47 343H1095.44ZM1007.6 369.957H1048.89C1068.66 369.957 1081.62 385.646 1077.85 405C1074.08 424.354 1055 440.043 1035.23 440.043H1015.96L1010.71 467H988.686L1007.6 369.957ZM1020.17 418.478H1039.44C1047.04 418.478 1054.38 412.444 1055.83 405C1057.28 397.556 1052.29 391.522 1044.69 391.522H1025.42L1020.17 418.478ZM1172.78 369.957H1214.07C1233.84 369.957 1246.8 385.646 1243.03 405C1239.26 424.354 1220.18 440.043 1200.42 440.043H1181.14L1175.89 467H1153.87L1172.78 369.957ZM1185.35 418.478H1204.62C1212.22 418.478 1219.56 412.444 1221.01 405C1222.46 397.556 1217.47 391.522 1209.87 391.522H1190.6L1185.35 418.478Z"/><path d="M1189.77 881.462C1179.15 880.038 1171.69 870.27 1173.11 859.645C1174.54 849.018 1184.3 841.559 1194.93 842.983C1205.55 844.407 1213.01 854.174 1211.59 864.8C1210.17 875.425 1200.4 882.885 1189.77 881.462ZM1177.86 918.961C1179.74 921.961 1181.65 924.867 1183.58 927.673C1186.19 925.476 1188.79 923.175 1191.39 920.775C1189.15 920.522 1186.89 920.244 1184.62 919.94C1182.35 919.636 1180.09 919.309 1177.86 918.961ZM1152.49 913.928C1142.34 911.462 1132.73 908.551 1123.8 905.283C1122.25 909.639 1120.93 913.892 1119.87 918.009C1114.73 937.993 1116.47 950.782 1121.24 954.458C1126.01 958.134 1138.82 956.563 1156.84 946.506C1160.55 944.433 1164.33 942.082 1168.14 939.469C1162.71 931.663 1157.45 923.11 1152.49 913.928ZM1247.15 921.81C1237.67 922.612 1227.63 922.89 1217.2 922.599C1209.99 930.15 1202.67 937.016 1195.37 943.117C1198.36 946.642 1201.39 949.906 1204.43 952.882C1219.16 967.328 1231.11 972.216 1236.67 969.925C1242.24 967.634 1247.29 955.754 1247.59 935.121C1247.65 930.87 1247.5 926.421 1247.15 921.81ZM1266.42 919.326C1269.28 954.165 1261.77 980.587 1244.06 987.875C1226.35 995.165 1202.42 981.678 1179.93 954.917C1151.19 974.814 1124.56 981.526 1109.39 969.83C1094.22 958.136 1093.93 930.67 1105.87 897.813C1074.26 882.871 1055.13 863.161 1057.68 844.177C1060.22 825.192 1083.86 811.214 1118.29 805.118C1115.42 770.279 1122.93 743.857 1140.64 736.568C1158.35 729.279 1182.28 742.766 1204.77 769.527C1233.51 749.63 1260.15 742.918 1275.32 754.613C1290.48 766.308 1290.77 793.774 1278.84 826.631C1310.44 841.573 1329.57 861.282 1327.03 880.267C1324.48 899.251 1300.84 913.23 1266.42 919.326ZM1189.33 781.327C1186.34 777.802 1183.31 774.538 1180.28 771.562C1165.54 757.115 1153.6 752.227 1148.03 754.519C1142.46 756.81 1137.42 768.689 1137.12 789.323C1137.06 793.573 1137.2 798.022 1137.56 802.635C1147.03 801.832 1157.07 801.554 1167.51 801.846C1174.71 794.295 1182.04 787.428 1189.33 781.327ZM1232.22 810.516C1242.36 812.982 1251.97 815.893 1260.9 819.162C1262.45 814.805 1263.77 810.552 1264.83 806.435C1269.97 786.451 1268.23 773.662 1263.46 769.986C1258.7 766.31 1245.89 767.881 1227.87 777.938C1224.15 780.01 1220.38 782.363 1216.56 784.975C1221.99 792.781 1227.25 801.334 1232.22 810.516ZM1206.84 805.483C1204.97 802.483 1203.06 799.576 1201.12 796.771C1198.51 798.968 1195.91 801.269 1193.31 803.669C1195.56 803.922 1197.82 804.2 1200.09 804.504C1202.35 804.808 1204.61 805.135 1206.84 805.483ZM1141.17 890.67C1140.26 888.596 1139.37 886.501 1138.5 884.384C1137.63 882.265 1136.78 880.151 1135.97 878.041C1134.31 881.166 1132.75 884.273 1131.28 887.352C1134.49 888.511 1137.79 889.618 1141.17 890.67ZM1165.55 896.985C1172.57 898.463 1179.81 899.711 1187.2 900.701C1194.58 901.69 1201.89 902.392 1209.06 902.815C1213.85 897.472 1218.55 891.828 1223.1 885.927C1227.65 880.024 1231.91 874.043 1235.86 868.052C1233.63 861.231 1231.09 854.339 1228.25 847.448C1225.42 840.556 1222.37 833.874 1219.15 827.459C1212.13 825.981 1204.89 824.733 1197.51 823.744C1190.12 822.754 1182.81 822.052 1175.65 821.629C1170.86 826.972 1166.16 832.615 1161.61 838.518C1157.06 844.42 1152.79 850.4 1148.84 856.393C1151.08 863.212 1153.61 870.104 1156.45 876.997C1159.29 883.888 1162.33 890.57 1165.55 896.985ZM1248.74 846.402C1250.39 843.277 1251.96 840.17 1253.42 837.091C1250.21 835.933 1246.92 834.826 1243.54 833.774C1244.44 835.847 1245.33 837.943 1246.2 840.061C1247.07 842.178 1247.92 844.293 1248.74 846.402ZM1120.79 824.387C1116.24 825.219 1111.9 826.208 1107.8 827.349C1087.92 832.887 1077.72 840.787 1076.92 846.755C1076.12 852.722 1083.88 863.031 1101.6 873.606C1105.25 875.785 1109.18 877.881 1113.35 879.882C1117.39 871.272 1122.17 862.441 1127.64 853.552C1124.7 843.534 1122.42 833.757 1120.79 824.387ZM1140.05 821.901C1140.65 825.256 1141.34 828.665 1142.12 832.117C1143.46 830.297 1144.84 828.479 1146.23 826.666C1147.63 824.852 1149.04 823.064 1150.46 821.302C1146.92 821.428 1143.45 821.628 1140.05 821.901ZM1263.92 900.056C1268.47 899.225 1272.81 898.236 1276.9 897.095C1296.78 891.558 1306.99 883.656 1307.79 877.69C1308.59 871.722 1300.82 861.414 1283.1 850.837C1279.45 848.659 1275.52 846.562 1271.35 844.562C1267.31 853.171 1262.53 862.002 1257.06 870.893C1260 880.909 1262.28 890.686 1263.92 900.056ZM1244.65 902.542C1244.05 899.187 1243.36 895.778 1242.58 892.326C1241.24 894.147 1239.87 895.964 1238.47 897.779C1237.07 899.591 1235.66 901.379 1234.24 903.141C1237.78 903.016 1241.25 902.816 1244.65 902.542Z"/><path d="M1026.99 1022.96C1102.77 1035.65 1153.92 1107.36 1141.24 1183.14C1131.76 1239.81 1089.26 1282.71 1036.73 1295.43L1017.21 1199.78C1031.39 1195.05 1042.55 1182.83 1045.19 1167.07C1049 1144.33 1033.65 1122.82 1010.92 1119.01C988.182 1115.21 966.669 1130.55 962.864 1153.29C960.224 1169.06 966.804 1184.25 978.675 1193.34L929.078 1277.42C883.551 1248.29 857.33 1193.89 866.815 1137.21C879.498 1061.43 951.211 1010.28 1026.99 1022.96Z"/><path d="M473.977 979.946L410.886 1155.77L496.382 1020.69L484.279 980.223C482.779 975.207 475.746 975.018 473.977 979.946ZM519.664 1019.51L410.886 1155.77L538.719 1052.09L529.003 1021.35C527.707 1017.25 522.393 1016.23 519.664 1019.51ZM476.303 1215.78L410.886 1155.77L578.276 1045.27C581.943 1042.98 586.727 1045.71 586.568 1050.07L581.524 1187.48L498.912 1219.99C491.193 1223.02 482.415 1221.39 476.303 1215.78Z"/><path d="M924.54 326.487C924.65 327.016 924.693 327.557 924.664 328.097L920.154 412.039C920.036 414.232 918.776 416.195 916.851 417.186L845.529 454.034L841.21 534.433C841.092 536.621 839.842 538.579 837.921 539.581L689.045 616.487C688.704 616.661 688.337 616.764 687.97 616.874C687.832 616.913 687.7 616.99 687.555 617.021C686.532 617.238 685.471 617.181 684.477 616.856C684.314 616.801 684.169 616.701 684.015 616.631C683.691 616.491 683.351 616.366 683.046 616.165L543.296 523.752C541.489 522.56 540.445 520.473 540.563 518.281L554.092 266.457C554.122 265.906 554.226 265.375 554.389 264.862C554.443 264.688 554.557 264.533 554.627 264.361C554.757 264.045 554.879 263.722 555.061 263.433C555.184 263.24 555.358 263.088 555.503 262.912C555.689 262.676 555.86 262.432 556.074 262.229C556.256 262.062 556.488 261.944 556.692 261.801C556.919 261.63 557.125 261.441 557.381 261.309L557.388 261.31L631.815 222.856C633.733 221.866 636.021 221.988 637.822 223.179L707.7 269.385L707.715 269.386C707.948 269.552 708.14 269.754 708.348 269.942C708.535 270.105 708.746 270.255 708.909 270.432C709.108 270.665 709.244 270.926 709.411 271.18C709.529 271.371 709.693 271.541 709.787 271.745C709.944 272.061 710.024 272.387 710.127 272.715C710.178 272.894 710.274 273.06 710.309 273.246C710.419 273.775 710.461 274.317 710.433 274.857L701.983 432.143L764.003 400.097L768.323 319.69C768.352 319.155 768.456 318.616 768.619 318.11C768.681 317.929 768.788 317.774 768.857 317.601C768.994 317.286 769.117 316.963 769.298 316.674C769.422 316.481 769.596 316.329 769.733 316.152C769.926 315.917 770.09 315.673 770.312 315.47C770.494 315.303 770.719 315.185 770.922 315.042C771.157 314.871 771.363 314.682 771.611 314.55L771.619 314.55L846.053 276.097C847.971 275.105 850.26 275.228 852.06 276.42L921.938 322.626C922.185 322.793 922.37 322.995 922.586 323.183C922.766 323.346 922.976 323.495 923.14 323.673C923.338 323.906 923.475 324.167 923.642 324.421C923.767 324.612 923.923 324.781 924.018 324.986C924.175 325.294 924.254 325.628 924.357 325.956C924.415 326.135 924.504 326.301 924.54 326.487ZM908.316 407.85L912.067 338.047L886.021 351.502L850.039 370.093L846.289 439.896L908.324 407.851L908.316 407.85ZM829.38 530.245L833.132 460.396L797.748 478.52L696.705 530.237L692.917 600.744L829.38 530.245ZM565.551 277.699L552.781 515.385L680.89 600.09L684.677 529.599L617.714 486.035L617.692 486.018L617.663 486.001C617.437 485.851 617.253 485.642 617.044 485.461C616.865 485.298 616.653 485.164 616.497 484.987L616.484 484.963C616.299 484.762 616.176 484.517 616.023 484.294C615.883 484.079 615.713 483.894 615.604 483.673L615.598 483.65C615.475 483.413 615.407 483.133 615.324 482.868C615.238 482.633 615.122 482.412 615.075 482.164L615.076 482.156C615.016 481.862 615.018 481.555 615.004 481.255C614.986 481.024 614.938 480.791 614.951 480.561L614.951 480.546L623.781 316.206L590.005 293.86L565.551 277.707L565.551 277.699ZM634.161 235.396L572.149 267.427L630.357 305.917L692.362 273.878L634.146 235.395L634.161 235.396ZM653.602 457.134L689.576 438.551L697.836 284.806L671.791 298.261L635.809 316.852L627.549 470.596L653.602 457.134ZM848.392 288.637L786.387 320.668L844.603 359.159L906.6 327.119L848.392 288.637ZM838.019 369.447L804.235 347.108L779.781 330.94L776.031 400.743L809.807 423.074L834.268 439.25L838.019 369.447ZM691.253 519.318L782.176 472.766L827.626 449.504L769.454 411.039L698.118 447.894L633.101 481.483L691.253 519.318Z"/><path d="M515.096 123.647C511.658 123.204 515.493 125.508 519.875 126.839C521.25 126.049 522.513 125.232 523.65 124.424C520.762 124.709 517.92 124.318 515.096 123.647Z"/><path d="M534.173 121.69C536.62 119.162 538.551 116.287 539.533 113.169C538.749 115.379 537.232 117.168 535.773 119.076C528.78 122.197 535.512 116.591 536.462 114.23C528.322 121.925 534.77 119.301 534.173 121.69Z"/><path d="M543.502 104.97C544.8 98.8493 542.89 100.57 542.004 102.85C542.597 103.274 542.527 107.37 543.502 104.97Z"/><path d="M517.35 15.032C519.135 15.6225 521.224 16.1785 520.864 16.5733C522.93 16.4205 523.443 16.0807 517.35 15.032Z"/><path d="M520.864 16.5733L519.531 16.6555L520.751 16.7209L520.864 16.5733Z"/><path d="M565.704 110.537C565.115 116.116 562.902 118.547 560.572 123.078L557.395 124.136C554.293 128.502 557.201 127.162 554.927 130.663C550.657 133.49 541.921 139.56 539.36 139.863C537.564 139.565 540.884 137.911 541.396 137.151C535.826 139.909 536.579 141.798 528.518 142.804L528.363 142.268C507.944 148.532 483.918 126.894 487.748 102.605C487.323 104.121 487.002 103.682 486.489 104.245C487.292 91.5817 495.861 79.972 508.014 76.4696C519.973 72.538 532.743 76.6794 539.676 85.2794C536.105 78.8948 528.231 71.542 517.783 70.6305C507.606 69.3387 497.183 74.4334 493.011 80.9851C487.341 83.5164 485.4 92.7805 482.888 94.1674C476.632 116.147 484.034 127.088 497.269 140.605C499.383 142.518 497.668 142.516 497.813 143.763C493.206 140.743 489.182 136.606 486.075 131.8C487.635 134.969 489.363 138.081 491.8 140.681C487.369 138.437 482.537 127.842 480.777 127.187C486.749 142.706 509.739 157.048 523.356 153.512C517.38 152.881 509.84 151.703 503.513 148.279C500.914 146.434 497.526 142.897 498.288 142.435C514.887 151.494 533.228 152.495 550.141 142.502C554.431 140.048 559.379 135.536 560.608 135.64C558.378 138.137 560.731 137.012 558.973 139.247C563.707 133.594 557.663 136.484 564.481 129.104L566.156 132.275C566.117 127.015 574.181 121.787 574.618 113.54C576.618 111.285 576.07 116.482 573.505 121.962C576.835 115.952 575.198 114.675 576.57 109.52C576.991 111.379 577.605 113.379 577.792 115.304C577.092 108.936 580.89 105.192 582.192 101.735C581.462 101.278 579.368 104.103 580.028 96.7935C580.534 93.6502 581.14 95.2669 581.568 94.5368C581 94.0931 579.723 91.4451 579.398 86.6707C580.27 85.6845 580.908 89.7671 581.859 90.0668C581.759 86.2932 581.082 83.3296 581.442 80.4968C579.447 74.1427 580.323 81.1454 578.492 77.4692C576.814 67.5883 581.319 75.6362 582.307 71.3965C585.947 78.705 587.091 89.3885 587.682 93.8306C587.509 88.4934 586.749 83.2377 585.638 78.0995C586.948 78.8852 584.924 67.0662 587.912 75.1292C585.858 58.5586 573.771 41.6211 561.691 32.7567C563.082 34.4504 564.84 36.5785 564.073 36.7631C558.122 31.9598 559.309 31.8216 558.611 30.0517C553.62 27.1376 552.939 29.4178 549.453 28.7458C540.223 22.0196 538.217 22.3077 529.5 17.6739L529.639 19.6874C523.336 16.5371 521.809 19.4213 514.775 17.5695C514.389 17.1673 517.243 16.6674 519.534 16.6617C513.015 16.5909 513.616 14.5292 507.142 15.1273C508.84 14.2651 510.574 13.7822 512.351 13.0971C507.089 12.668 499.462 14.3524 502.05 12.1987C492.997 14.7783 477.12 17.947 467.501 24.6865L467.489 22.8664C462.935 26.9762 448.549 34.3765 446.644 40.2703L445.57 40.3642C443.058 43.4992 441.195 47.1929 439.086 50.487C435.797 54.6158 434.962 51.6666 435.237 52.4271C428.526 62.2309 424.674 70.7247 421.402 77.6741C422.653 80.2793 419.393 91.9935 418.629 101.632C409.269 148.438 438.442 199.356 475.979 215.517C481.41 218.383 489.933 219.522 497.143 220.767C488.95 217.103 487.682 218.093 479.776 214.002C474.178 210.317 473.323 206.901 469.6 202.604L470.857 205.818C462.941 201.675 466.53 201.473 460.054 198.354L462.187 196.264C459.514 195.673 455.68 190.685 454.806 188.103L451.833 187.797C448.908 182.906 447.467 179.476 447.954 177.049L446.756 178.614C445.939 176.601 436.038 160.308 441.771 164.591C440.767 163.369 439.326 162.487 438.093 159.224L439.567 157.957C437.125 153.679 435.315 148.385 435.741 146.767C437.03 149.152 438.08 149.713 439.123 150.239C434.248 130.408 431.29 148.064 428.148 129.192L429.373 129.268C428.645 127.737 428.298 126.138 427.765 124.542L429.043 119.365C424.502 112.296 431.346 92.3992 433.736 81.2913C434.933 76.8067 439.624 72.5217 443.754 65.3403L441.947 64.7564C446.371 59.0865 465.712 42.8433 473.298 44.9066C477.711 40.7416 472.557 44.7831 471.995 43.4944C481.429 36.1654 483.656 39.031 489.421 38.2945C495.91 35.5996 484.089 38.9449 487.317 36.6118C498.035 35.4493 495.504 31.6554 509.184 32.2439C510.491 33.2571 505.704 33.0226 504.367 33.9033C513.585 30.9205 532.095 34.5461 543.407 41.8739C556.522 50.4517 569.535 72.1249 567.546 90.4812L568.227 90.7735C566.829 97.9832 567.099 106.591 563.448 113.94L565.704 110.537Z"/><path d="M476.964 123.001L476.138 125.339C477.956 128.725 479.27 132.3 481.808 135.107C480.314 130.765 479.014 128.874 476.964 123.001Z"/><path d="M482.326 123.554C481.321 122.063 480.842 120.373 480.277 118.677C480.636 121.568 481.842 124.18 482.937 126.818L482.326 123.554Z"/><path d="M579.61 116.54L578.925 117.732C577.062 124.166 574.137 130.378 570.216 135.964C574.505 130.091 577.686 123.452 579.61 116.54Z"/><path d="M518.264 13.4828C520.706 12.9648 524.035 13.8326 526.577 13.6251C523.33 13.4355 520.114 13.1393 516.902 13.0951L518.264 13.4828Z"/><path d="M430.606 45.1504C430.433 50.1771 425.899 51.4893 431.034 48.893C434.341 43.6149 430.278 47.1966 430.606 45.1504Z"/><path d="M421.845 67.2759C423.392 64.1296 423.87 62.175 424.554 60.324C421.039 63.6976 422.528 64.7367 421.845 67.2759Z"/><path d="M760.184 763.971L601.149 877.064L636.019 926.099L844.045 778.129L760.184 763.971ZM738.982 889.109L653.392 950.521L714.131 1036.06L798.335 1050.28L737.446 964.432L823.163 903.333L738.982 889.109Z"/><path d="M1335.52 536.066C1322.01 514.865 1293.85 508.627 1272.64 522.134L1235.76 545.612C1214.78 558.969 1208.45 586.635 1221.38 607.751C1212.62 622.11 1212.19 640.786 1221.85 655.934C1235.36 677.135 1263.52 683.373 1284.73 669.866L1321.61 646.388C1342.59 633.03 1348.92 605.365 1335.99 584.25C1344.75 569.895 1345.18 551.217 1335.52 536.066ZM1325.67 572.508C1319.7 567.71 1312.66 564.56 1305.28 563.217C1305.56 561.517 1305.24 559.712 1304.24 558.145C1302.07 554.753 1297.57 553.755 1294.17 555.916L1257.3 579.394C1253.91 581.555 1252.91 586.056 1255.07 589.449C1257.23 592.841 1261.74 593.839 1265.13 591.678L1280.5 581.896C1294.92 572.711 1314.06 576.953 1323.26 591.369C1332.45 605.787 1328.2 624.919 1313.78 634.104L1276.9 657.582C1262.47 666.766 1243.33 662.525 1234.14 648.108C1228.47 639.221 1227.91 628.533 1231.7 619.492C1237.68 624.29 1244.71 627.44 1252.09 628.782C1251.81 630.484 1252.14 632.288 1253.14 633.855C1255.3 637.247 1259.8 638.246 1263.2 636.084L1300.07 612.606C1303.47 610.445 1304.46 605.943 1302.3 602.551C1300.14 599.159 1295.64 598.161 1292.24 600.322L1276.88 610.105C1262.45 619.289 1243.31 615.047 1234.12 600.631C1224.93 586.214 1229.17 567.081 1243.6 557.896L1280.47 534.418C1294.9 525.234 1314.04 529.475 1323.23 543.892C1328.9 552.777 1329.46 563.464 1325.67 572.508Z"/><path d="M981.686 557C948.352 557 927.519 573.667 919.186 607C931.686 590.333 946.269 584.083 962.935 588.25C972.446 590.625 979.238 597.521 986.768 605.167C999.029 617.604 1013.21 632 1044.19 632C1077.52 632 1098.35 615.333 1106.69 582C1094.19 598.667 1079.6 604.917 1062.94 600.75C1053.43 598.375 1046.63 591.479 1039.1 583.833C1026.85 571.396 1012.68 557 981.686 557ZM919.186 632C885.852 632 865.019 648.667 856.686 682C869.186 665.333 883.769 659.083 900.436 663.25C909.946 665.625 916.738 672.521 924.269 680.167C936.529 692.604 950.706 707 981.686 707C1015.02 707 1035.85 690.333 1044.19 657C1031.69 673.667 1017.1 679.917 1000.44 675.75C990.925 673.375 984.133 666.479 976.603 658.833C964.353 646.396 950.175 632 919.186 632Z"/></svg>