<svg xmlns="http://www.w3.org/2000/svg" xmlns:svg="http://www.w3.org/2000/svg" id="svg5" aria-label="The site's logo: a combination of the :// in web URLs followed by capital A, representing the name of Ase Morales as a web developer." class="{{ include.classes }}" version="1.1" viewBox="0 0 55.605 40.157"><defs><rect id="{{ include.id }}-rect236" width="242.704" height="224.727" x="11.178" y="351.363"/></defs><g id="{{ include.id }}-layer1" transform="translate(-5.1154499,-102.46447)"><g id="text234" transform="scale(0.26458333)" style="font-weight:600;font-size:192px;font-family:Inter;-inkscape-font-specification:'Inter Semi-Bold';white-space:pre;shape-inside:url(#{{ include.id }}-rect236);display:inline;stroke-width:0;stroke-linecap:round;stroke-linejoin:bevel"><path id="path329" style="letter-spacing:-6px" d="m 124.28125,387.26729 c -2.816,0 -5.28058,0.73504 -7.39258,2.20703 -2.112,1.408 -3.67912,3.45654 -4.70312,6.14454 L 56.121094,539.04269 h 10.080078 c 2.495998,0 4.926925,-0.73504 7.294922,-2.20704 2.431998,-1.47199 4.193251,-3.681 5.28125,-6.625 L 134.45703,387.26729 Z m 34.73633,0 c -2.816,0 -5.28058,0.73504 -7.39258,2.20703 -2.112,1.408 -3.68108,3.45654 -4.70508,6.14454 L 90.857423,539.04269 H 100.9375 c 2.496,0 4.92693,-0.73504 7.29492,-2.20704 2.432,-1.47199 4.19325,-3.681 5.28125,-6.625 l 55.67969,-142.94336 z m 18.57031,22.99024 c -0.99334,2.69019 -6.55589,16.62321 -8.11523,20.67187 l 20.02734,53.1543 -31.5957,0.70898 c -2.87643,-0.007 -5.35054,0.72232 -7.42188,2.18946 -2.13111,1.4442 -3.69982,3.48041 -4.70898,6.10937 l -3.64649,9.5 54.11133,-0.62304 10.59961,28.13476 c 1.088,2.94399 2.8473,5.15104 5.2793,6.62305 2.368,1.47201 4.80088,2.20898 7.29687,2.20898 h 10.08008 L 181.39453,416.20284 c -0.80122,-1.27026 -2.30274,-5.21628 -3.80664,-5.94531 z M 33.865234,434.39229 c -3.999996,0 -7.437503,1.40626 -10.3125,4.21875 -2.812497,2.8125 -4.21875,6.25001 -4.21875,10.3125 0,4 1.406253,7.43751 4.21875,10.3125 2.874997,2.8125 6.312504,4.21875 10.3125,4.21875 4.062496,0 7.500003,-1.40625 10.3125,-4.21875 2.812498,-2.87499 4.21875,-6.3125 4.21875,-10.3125 0,-4.06249 -1.406252,-7.5 -4.21875,-10.3125 -2.812497,-2.81249 -6.250004,-4.21875 -10.3125,-4.21875 z m 0,68.15625 c -3.999996,0 -7.437503,1.40626 -10.3125,4.21875 -2.812497,2.8125 -4.21875,6.25001 -4.21875,10.3125 0,4 1.406253,7.43751 4.21875,10.3125 2.874997,2.8125 6.312504,4.21875 10.3125,4.21875 4.062496,0 7.500003,-1.40625 10.3125,-4.21875 2.812498,-2.87499 4.21875,-6.3125 4.21875,-10.3125 0,-4.06249 -1.406252,-7.5 -4.21875,-10.3125 -2.812497,-2.81249 -6.250004,-4.21875 -10.3125,-4.21875 z"/></g></g></svg>