<svg id="{{ include.id }}" class="{{ include.classes }}" xmlns="http://www.w3.org/2000/svg" version="1.1" viewBox="-5.0 -10.0 110.0 135.0">
 <path d="m42.109 18.379c0.22266-0.73438 0.023437-1.5312-0.51953-2.0742-0.54297-0.54297-1.3438-0.74609-2.0781-0.52344-14.711 4.4609-25.426 18.125-25.426 34.301 0 19.789 16.043 35.832 35.832 35.832 16.176 0 29.84-10.715 34.301-25.426 0.22266-0.73438 0.023438-1.5352-0.52344-2.0781-0.54297-0.54297-1.3398-0.74219-2.0742-0.51953-2.9102 0.88281-6 1.3555-9.2031 1.3555-17.488 0-31.664-14.176-31.664-31.664 0-3.2031 0.47266-6.293 1.3555-9.2031z" fill-rule="evenodd"/>
</svg>