<?xml version="1.0" encoding="UTF-8" standalone="no"?>
<svg
   id="{{ include.id }}"
   class="{{ include.classes }}"
   viewBox="-5 -10 70.22422 70.220284"
   version="1.1"
   width="70.22422"
   height="70.220284"
   xmlns="http://www.w3.org/2000/svg"
   xmlns:svg="http://www.w3.org/2000/svg">
  <defs
     id="defs7" />
  <path
     d="m 23.024,-7.3147198 a 2.08,2.08 0 0 0 -0.52,-2.074 2.09,2.09 0 0 0 -2.078,-0.523 C 5.715,-5.4517198 -5,8.2122802 -5,24.38828 c 0,19.789 16.043,35.832 35.832,35.832 16.176,0 29.84,-10.715 34.301,-25.426 a 2.08,2.08 0 0 0 -2.598,-2.598 c -2.91,0.883 -6,1.355 -9.203,1.355 -17.488,0 -31.664,-14.176 -31.664,-31.6639998 0,-3.203 0.473,-6.293 1.355,-9.203 z"
     fill-rule="evenodd"
     id="path2" />
</svg>
