<svg class="{{ include.classes }}" xmlns="http://www.w3.org/2000/svg" viewBox="0 0 860 978" preserveAspectRatio="xMidYMid meet" xmlns:v="https://vecta.io/nano"><path d="M514.7 46.9l-4.4 4.1-10.9.2c-6 .2-11.8-.1-12.8-.6-1.4-.7-1.7-.6-1.2.2 1.1 1.8-8.5 1.5-10.8-.3-3.1-2.4-5.9-1.8-7.8 1.5-1.4 2.5-2.4 3-5.3 3-2 0-3.4.4-3.1.9.6 1-5.7 2.3-12.6 2.6-3 .1-5.5.9-6.8 2-1.1 1-2 1.4-2 .9s-1.3.6-2.9 2.4c-3.1 3.3-6.1 4.2-6.1 1.8 0-1.2-.7-1.3-3.2-.5-1.7.5-3.6 1.3-4.2 1.9-.5.5-1.9 1-3.1 1s-2.6.5-3.2 1.1c-.7.7-2.5 1.3-4.2 1.4-1.6.1-4.3 1.2-5.9 2.4-3.4 2.4-4.9 2.6-5.4 1-.2-.7-1.9.1-4 2-3.9 3.4-5.8 3.9-5.8 1.7 0-2.3-2.2-3.1-3.5-1.3-1.3 1.9-2.5 2.2-2.5.8 0-.5-1.6-2.6-3.5-4.7-1.9-2.2-4.6-5.1-5.9-6.6-2-2.3-3-2.7-5.5-2.2-2.1.4-3.1.3-3.1-.6 0-.8-.9-1-2.9-.5-2.2.5-3.9-.1-7.6-2.6-4.4-3-5-3.1-7.9-2-1.7.7-5.8 1.5-9 1.7-3.9.2-6.7 1-8 2.2-4.1 3.6-10.9 7.1-7.8 4 .7-.7 1.2-1.9 1.2-2.7 0-1-.8-.7-2.7 1.1-2.6 2.3-6.5 4.8-7.7 4.8-.2 0-2.4-1.8-4.7-4-4.7-4.4-6-4.8-7.9-2.5-.7.8-2.6 1.5-4.2 1.5-1.8 0-4.3 1.1-6 2.5-3.2 2.7-6.1 3.1-10.5 1.4-1.9-.7-2.9-.7-3.1 0-.2.6-2.1 1.1-4.1 1.1-3.1 0-4 .5-5 2.6-1.1 2.5-1.3 2.5-2.9 1-1.4-1.2-2.1-1.3-3-.4-.7.7-1.2 1.8-1.2 2.5 0 1.7-1.1 1.6-3.8-.3-1.2-.8-2.2-2.3-2.2-3.3 0-1.5-.7-1.6-5.6-1.1-5.5.6-7.4 1.9-7.4 5 0 .9-.5 2.1-1.1 2.7-.7.7-.6 1.5.5 2.6 3.5 3.4.8 7-3.5 4.7-2.1-1.2-2.2-1.1-1.6 2.4.6 3.7 0 4.5-2.1 2.4-.9-.9-1.2-.7-1.2 1 0 1.5-.6 2.2-1.9 2.2-2.5 0-6.1 4.5-6.1 7.6 0 1.3-.4 2.4-.8 2.4-.5 0-1.4 1.1-2 2.5s-1.7 2.5-2.3 2.5c-.7 0-1.8.8-2.5 1.7-.8 1.1-1.3 1.3-1.4.5 0-2.5-3.1-1.1-4.7 2.3-1 2-2.4 3.5-3.4 3.5s-2.1.4-2.4 1c-1.1 1.8-3.5 1.1-3.5-1s-1.5-2.7-2.5-1c-.3.5-3 1-6 1s-5.7.5-6 1.1c-.4.5-1.8 1.4-3.1 1.9s-2.4 1.6-2.4 2.4c0 1.5-5 5.5-9.2 7.4-1.6.6-2.8 1.9-2.8 2.9 0 .9-1.4 3.2-3.2 5-2.1 2.2-3.3 4.6-3.7 7.5-.5 3.7-1.2 4.5-5.5 7.2-3.5 2.1-5.1 2.6-5.4 1.7-.2-.7-1-.1-1.8 1.5-1 1.8-1.1 3.1-.5 3.7 1.7 1.7-.6 4.6-3 4-1.9-.5-2.1-.3-1.7 1.5.7 2.7-.4 3-6.3 1.8-5.6-1.1-7-.4-4.4 2.4 2.4 2.6 1.3 9-1.5 9-2.3 0-2.7 1.8-.5 2.6 2.3.9 1.8 3.4-.6 3.4-1.4 0-1.9.5-1.6 1.4.7 1.8-2.3 4.6-4.9 4.6-2.4 0-4 1.1-4.6 3-.2.8-2.2 2.4-4.3 3.5-4.3 2.2-9.8 9.4-8.5 11s-1.3 4.3-4.5 4.7c-2.9.3-3 .4-2.7 5.5.3 4.4.1 5.3-1.3 5.3-1.2 0-1.6.8-1.3 3.1.2 2.5-.1 3.2-1.6 3.5-3.7.5-4.6-.6-4-4.7.5-3.1.3-3.9-.8-3.9-3.3 0-4.2 2.8-3.2 9.1 1 6.1.5 8.7-1.5 7.5-.6-.4-2.9 1.3-5.4 4-2.3 2.5-5 5.4-5.9 6.2-1 .9-1.8 3.1-1.8 4.8 0 1.9-.6 3.4-1.5 3.8-2.3.8-1.8 3.3.6 3.2 1.2-.1 2.4.5 2.7 1.3.3 1-.3 1.2-2.5.7-4.7-1.1-6.1 1.4-3.3 5.9 2.1 3.3 2.1 3.7.6 5.4-2.1 2.3-2.1 7.9 0 10.2 2.4 2.6 1.1 4.9-2.7 4.9-1.7 0-4.7.9-6.5 2.1-2.5 1.5-3.8 1.8-5.2 1-1.5-.8-2.4-.5-4.7 1.9-1.6 1.7-4.1 3-5.9 3.2-3.1.4-3 .4 1.2 1.6 2.4.7 5.7 1 7.3.7 2.4-.5 3.1-.3 4 1.8 1.2 2.8 5.8 5.7 8.8 5.7 3.2 0 2.5 2-.9 2.7-3.8.7-4.1 1.1-3.1 5.4.4 1.8.6 4 .4 4.6-.8 2.2-3.3 1.4-4.5-1.5l-1.2-2.7-.3 2.5c-.3 1.4-1.2 3-2 3.7-1.3 1-1.3 1.5-.4 2.7 1.7 2.1-.4 6-4.1 7.4-2.6 1-2.9 1.4-1.8 2.7.7.8 2.7 1.5 4.4 1.5 3.9 0 6.1 1.4 5.3 3.3-.7 1.9-4.4 2.5-7.8 1.3-3.3-1.2-6.3-.1-5.5 1.9.3.8.8 2.1 1.1 2.8.4.8-1 2-3.7 3.1-5.8 2.5-8.3 4.7-6.6 5.8.7.4 2.3.8 3.4.8 1.2 0 2.4.6 2.7 1.4s2.1 1.7 3.9 2.1c5.2 1.1 8.8 3.4 8.8 5.5 0 1 .6 2.5 1.4 3.3 2 1.9 2.3 4.7.8 8.2-1.7 4.3-.3 8.9 3.1 9.5 3 .6 7.7 4.4 7.7 6.2 0 .7 1.3 3 2.9 5 2.6 3.5 2.8 4.3 2.5 12-.3 9-1.6 13.8-3.7 13.8-.8 0-2.2.9-3.2 2-2.6 2.9-.7 4.8 3.1 3.1 2.2-1 2.8-.9 4 .6 1.2 1.6 2 7.5 1.4 11.3-.1.8-.9 2.3-1.7 3.2-2.2 2.5-.9 5.2 2.2 4.4 2.7-.7 4.5 1.5 4.5 5.7 0 1.6.8 2.8 2.5 3.5 2.9 1.3 3.3 3.9.9 5.7-1.2.9-1.5 2-.9 4.4.6 2.8 1 3.2 3.1 2.7 3-.8 3 .1.2 3.2-2.3 2.3-2.3 2.4-.3 3.9s2 1.5-.3 3c-2.4 1.7-2.9 3.9-.9 4.6.7.2 1.2 2.1 1.2 4.3 0 3.1.4 3.9 2 4.2 1.1.2 2.8 1.1 3.7 1.9 1 .9 2.5 1.2 3.7.8 1.6-.5 2-.1 2.3 2.2.2 1.9 1 2.9 2.3 3.1 1.1.2 3.1 1.7 4.4 3.4 2.2 2.7 2.3 3.3 1.2 6.4-1.5 4-1 5 2.6 5.7 4.6 1 9.3 4.4 9.3 6.8 0 1.1 1.4 3.4 3 4.9 1.7 1.5 3 3.5 3 4.4 0 .8 1.1 2.3 2.5 3.2s2.5 2.3 2.5 3.1c0 .7.9 3.1 2 5.3 1.6 3.1 2.8 4.2 5.9 5 2.6.7 4.6 2.1 6.2 4.5 2.2 3.1 2.5 3.3 3.6 1.8.7-.9 1.3-1.4 1.3-1s1.1.2 2.5-.3 2.5-.8 2.5-.5c0 .2-1.8 2.3-4 4.7-13 13.9-16.4 39-8.5 63.4 3.2 9.8 4.9 11.9 4.2 5.1-.2-2.6-.1-6.3.3-8.1s.3-4.1-.2-5c-.6-1.1-.6-2.2.2-3.2.8-.9 1.2-5.4 1.2-13.1 0-7.1.4-12.5 1.1-13.8.7-1.1 1.6-3.4 2.2-5.2 1-3.3 4.6-8.2 10.3-13.9 3.8-3.8 3.8-3.8 1.3-6.1-1.7-1.5-1.7-2.1-.6-3.6 1.2-1.7 1.5-1.6 5.8 1.3 2.5 1.6 5.2 2.8 6 2.4.8-.3 2.2.2 3.1 1.1 1.9 1.9 2.1 3.5.5 3.5-.6 0-.9.7-.5 1.5.3.9-.3 2-1.4 2.7-1.4.9-2 2.4-2 4.6 0 2.1-1.1 5.1-3 7.9-2 2.9-2.8 4.9-2.2 5.7 1.4 1.7 1.1 7.6-.4 7.6-.9 0-1.1 1-.7 3.5.4 2.3.2 3.5-.6 3.5-.6 0-1.1 1.7-1.1 4 0 2.2-.4 4-.9 4s-1.2 1.3-1.6 3c-.4 1.6-1 3-1.4 3-1 0-3.2 10.1-3.3 15.5-.3 6.2 3.2 15.9 6.1 16.9.9.3 2.3 1 3.1 1.4 4.3 2.7 9.5 4.2 12.1 3.7 2.2-.5 2.9-.2 3.4 1.6.4 1.2.3 2.4-.3 2.8-1.5.9-1.9 6.4-.4 6.8.6.3 1.2 0 1.2-.5s1.1-1.3 2.5-1.6c1.4-.4 2.3-1.1 2-1.6s-.1-1.1.4-1.4c.5-.4 1.2-.2 1.6.4s1 .8 1.5.5c.4-.3.8 1.7.8 4.4.1 4.8-1.6 8-3.5 6.8-.5-.3-1.9.2-3.1 1.2-2.6 1.9-2.2 4.7.9 5.6 1 .4 2.2 1.7 2.5 3.1.8 3 2 3.1 3 .2l.7-2.3.8 2.3c.9 2.4.3 5.1-1.2 5.3-.5.1-1.3.2-1.8.3-1.9.2-2.4 1.6-1.1 3.1 1 1.2.7 2-1.9 4.7-2.3 2.3-3.4 2.9-3.9 2-.6-.9-1.5-.9-4 0-1.8.7-3.2 1.5-3.2 1.8s2.1 1.2 4.7 1.9c10.2 2.8 9.7 2.4 11.2 7.9.8 2.9 1.2 5.4 1 5.7-1 .9-12.8 1.5-13.4.6-.3-.6-1.2-.8-2-.5-.7.3-2.4 0-3.7-.6-1.6-.8-1 0 1.7 2.8 3.4 3.5 5 4.2 10.5 5.2l8.7 1.6c1.5.3 2.3 1.2 2.3 2.4 0 1 1.1 3.6 2.5 5.6 1.6 2.4 2.5 5.1 2.5 7.8.1 2.3.7 5.2 1.5 6.6s1.4 4.1 1.5 6.1c0 3.9 3.5 12.9 5 12.9.4 0 1-.6 1.3-1.3 1-2.7 2 .6 2.3 7.4.2 5.3.7 7.4 2 8.3 1.1.9 1.7 2.8 1.9 6 .1 5.2 1.3 6.6 5.7 6.6 1.7 0 3.1.8 3.8 2 1.5 2.8 2.8 2.5 3.2-.7.8-7.2 6.7-1.1 8.3 8.6.5 3.1 1.3 4.5 2.7 4.9 1.6.4 1.9 1 1.4 3.5-.5 2.3-.1 3.6 1.5 5.3 1.2 1.3 1.9 3 1.6 3.8-.5 1.3 1 2.2 5.3 3.2.8.2 3.5.8 6 1.4 2.5.7 6.5 1.1 8.8 1 2.6 0 4.1.3 3.8.9-.4.5.8 1.1 2.6 1.3 2.7.2 3.3.7 3.1 2.6-.2 1.2.3 2.2 1 2.2.6.1 2.8 2.3 4.7 5 3.3 4.7 6.1 6.2 7.5 4 .9-1.4 5.4 2.1 5.5 4.2 0 .9 1.1 2.5 2.4 3.5s2.6 2.9 3 4.1c.4 1.3 1.6 2.2 2.6 2.2 2.2 0 27.8 25 29.9 29.2 1.4 2.7 4.1 4.6 4.1 2.8 0-.6 1.4-1 3.1-1 2.1 0 3.9.9 5.8 3 1.5 1.7 3.7 3.2 4.9 3.5 1.2.2 5 1.8 8.5 3.4 3.4 1.7 8.2 3.5 10.7 4 8.7 1.8 12.2 2.9 13.8 4.4.9.8 3.9 1.7 6.6 2.1 2.7.3 5.4 1 6.1 1.6.6.5 2 .7 3.1.4 1-.3 3.7.5 5.9 1.6s4.1 1.6 4.3 1.1c.4-1.3 5-.5 12.8 2.1 5.8 2 6.3 2 11.7.4 3.1-.9 8.1-1.6 10.9-1.5 2.9.1 6.5-.3 7.9-.9 1.7-.7 7.6-.8 15.6-.5 12.1.5 13.1.5 14.9-1.4 1-1.1 3.3-2.3 4.9-2.6 6.9-1.3 13.1-3.2 14.3-4.4.7-.7 2.6-1.3 4.1-1.3 1.6 0 3.7-1 5.1-2.5 1.8-1.9 3.4-2.5 6.7-2.5 3.5 0 4.3-.3 4.3-1.8 0-2.2 3-5.2 5.1-5.2.9 0 2.4-.7 3.5-1.5 1.6-1.3 1.6-1.4.2-.9-2.6.9-2.2-.5.7-2.8 1.4-1.1 2.5-2.6 2.5-3.5s.6-1.3 1.4-1c.9.4 1.7-.1 2.1-1.2.3-1.1 1.6-2.2 2.8-2.5 1.8-.5 2-.8.7-1.6-.9-.6-1-1-.3-1 .6 0 2.1-1.5 3.2-3.4 1.2-1.8 2.9-3.6 4-3.9 1-.2 2.1-1.7 2.4-3.6.4-1.8 1.3-3.1 2.1-3.1.9 0 2-.9 2.6-2s1.6-1.7 2.5-1.4c1 .4 1.5 0 1.5-1.5 0-1.4 1.1-2.5 3.6-3.6 1.9-.8 3.4-2 3.3-2.7-.3-2.8.2-3.7 2.3-4 1.8-.2 2.4-1.2 3-4.7.7-4.3 2.8-8.1 2.8-5.1 0 3.5 2.1-1.1 2.7-5.8.3-2.9 1.2-5.7 1.9-6.3 1-.8 1.4-.8 1.4 0 0 2.1 3 1.1 3.6-1.3.3-1.3 2.1-3.9 4-5.7s3.4-4 3.4-5c0-2.4 2.2-3.9 4.8-3.2 2.4.6 2.9-.6 1-2.6-1.1-1-.9-1.6 1-3.1 1.2-1 2.2-2.2 2.2-2.7s.9-1.7 2.1-2.7c1.4-1.2 1.9-2.5 1.5-3.9-.3-1.3.3-3.2 1.8-5.2 3.2-4.2 5.6-9 5.6-11.4 0-1.1.9-2.5 1.9-3.1 2-1 5.1-6.3 5.1-8.5 0-.7.7-1.5 1.5-1.9 1-.3 1.5-1.9 1.5-4.4 0-2.4.8-4.9 2-6.5 1.1-1.4 2-3.4 2-4.5 0-1 1.1-4 2.5-6.6s2.5-5.8 2.5-7.2c0-1.3.7-2.7 1.5-3 .9-.4 1.5-1.9 1.5-3.9s.6-3.5 1.5-3.9c.8-.3 1.5-1.7 1.5-3.1s.6-2.7 1.3-2.9l3.2-1.1c1.1-.4 4.2-.9 6.8-1 6.4-.3 12.1-4.3 16.4-11.6 1.8-3.1 7.5-10.3 12.7-16 11.5-12.5 15-18.8 21.5-38.6 5.5-16.7 7.1-26 4.6-26.9-.8-.4-1.5-1.5-1.5-2.6 0-1 .4-1.7.9-1.4 1.6 1 2.1-3.7 2.1-21.5 0-14.5-.3-17.9-1.5-18.9-2.4-2-1.8-2.8 3.4-5.4 5.2-2.7 6.4-4.2 13.1-17.1l6.1-11.5c1.1-1.9 2.9-3.7 4.2-4 1.7-.5 2.3-1.5 2.9-5.4.4-2.7 1.4-5.6 2.2-6.4 1.4-1.4 1.7-1.4 3.5.2 2.5 2.3 5.1 1.4 5.1-1.7s3.3-13.3 5.9-18.6c1.6-3.1 2.7-4.1 4.6-4.1 1.3 0 2.7.5 3 1 1.1 1.8 2.5-.1 1.9-2.5-.5-2-.1-2.7 2-3.5 2.1-.7 2.6-1.6 2.6-4.2l.1-3.3 2 2.8c1.1 1.5 2.5 2.5 3 2.1.5-.3.9-3.3.9-6.6 0-4 .5-6.7 1.5-7.8 1.3-1.4 2.1-7.1 2.8-19.3.2-3.5.4-3.7 3.4-3.7 3.1 0 3.2.1 3 3.7-.2 3.2.1 3.8 1.8 3.8s2-.6 1.9-5c-.1-2.8-.3-6.4-.5-8-.3-2.5 0-3 1.6-3 1.1 0 2.5-1 3.1-2.3.6-1.2 1.9-2.8 2.8-3.5s2.3-2.4 3.1-3.7c1.3-2.3 2-3.6 4.8-9.7.5-1.2.7-2.8.4-3.7-.3-.8.1-2 .9-2.7 1.6-1.3 1-4.4-1.4-7.2-1.2-1.3-1.3-2-.4-2.9 1.5-1.5 1.6-10 .1-11.5-1.9-1.9-.2-4.3 2.8-4.3 1.6 0 4-1.1 5.4-2.4 1.8-1.6 3.4-2.2 5.1-1.9 1.9.4 3.1-.2 4.7-2.2 2.7-3.5 2.8-6.5.2-6.5-1.1 0-2.3.5-2.6 1-.8 1.3-4.3.3-6.3-1.7-.8-.7-3.2-2.3-5.3-3.4-4.4-2.2-4.6-2.7-2.1-4.5 1.2-.9 1.7-2.7 1.7-6.1 0-5.4 2-6.6 4.1-2.5.7 1.5 1.4 2 1.8 1.3.4-.6.4-1.1.1-1.1-.4 0 .3-1.2 1.4-2.6l2.1-2.7-2.1-1.5c-1.9-1.3-2-1.6-.5-2.4.9-.5 1.6-1.8 1.6-2.8 0-1.5.7-2 2.6-2 2.1 0 2.5-.4 2.2-2.3-.2-1.8-1-2.2-4.8-2.5-9-.6-7.5-4.2 1.8-4.2h5.2v-3.3c0-3.2 2.4-5.5 8.2-7.9 2.7-1.1 2.1-3.7-.9-4.3-1.6-.4-3.6-1-4.5-1.5-1-.6-3.9-1.5-6.5-2-5.4-1.3-7.3-2.5-7.3-5 0-1-1-2.4-2.2-3.2-2.1-1.4-2.2-1.8-1.1-6 1.7-6.4.5-10.1-3.5-10.9s-6.2-2.6-6.2-5c0-1.1-.5-1.9-1-1.9-2 0-5.9-5.4-5.4-7.3.3-1 .2-2.3-.3-3s-1-2.5-1.1-4.1c-.2-2.3.7-3.7 3.9-6.4 3.8-3.3 4.1-3.8 3.6-7.6-.5-4.1-1.5-6.8-4.2-11.6-.8-1.4-1.5-4.3-1.5-6.6 0-2.7-.8-5.4-2.5-7.8-1.4-2-2.5-4.3-2.5-5 0-.8-1.6-2.3-3.5-3.5-1.9-1.1-4.3-3.3-5.2-4.8-3.9-6.1-6.8-9.3-8.5-9.3-2.5 0-2.4-4.8.4-10.4 2-4.3 2.1-4.6.4-7.1s-1.9-2.6-4.1-1.1c-3.8 2.5-8 2-11.7-1.3-3-2.7-3.3-3.5-3.6-9.3-.1-3.5-.6-11.9-1-18.8-.7-11.9-.8-12.5-2.9-12.8-1.8-.3-2.7.5-4 3.2-2 4.3-4.6 4.7-8.3 1.1-1.4-1.3-4.5-3.5-7-4.8-3.4-1.8-4.6-3.1-5.1-5.4-.3-1.7-2-5.4-3.8-8.2-1.7-2.8-3.1-5.7-3.1-6.3s-.6-1.9-1.3-2.7c-.8-.9-2.2-3.8-3.1-6.4-1.7-4.4-2-4.8-4.9-4.5-2.6.3-3.1-.1-3.8-2.6-1.1-4.1-4.9-7.8-7.4-7.2-1.2.3-2.8-.3-4.2-1.6-1.6-1.5-4.3-2.4-9.1-3-7.9-.9-11-2.9-12.9-8.2-1.7-5.1-3.1-6.6-6-6.6-1.3 0-3.7-.9-5.2-2.1-1.6-1.2-5.1-2.4-7.7-2.7-2.7-.2-5.3-1.1-5.7-1.8-.4-.8-1.4-1.4-2.2-1.4s-2.1-1.3-2.9-2.9c-2.3-4.4-7.3-8.2-10-7.5-3.1.7-5.4-2.2-5.8-7.6-.3-3.8-.7-4.6-3-5.4-2.1-.8-3.7-.5-6.5.9-5.5 2.7-17.8 2.9-22 .4l-3.1-2-4.7 4.1c-5.1 4.4-5.6 4.6-8.6 2.7-1.7-1-2.3-1-2.6 0-.3.7-1.5 1.3-2.7 1.3s-2.7.5-3.3 1.1c-.9.9-1.9.6-3.9-1-1.8-1.4-3.6-2-5.1-1.6-1.7.4-3.6-.8-8.7-5.6-5.6-5.2-6.8-5.9-8.5-5-1.1.6-3.3 1.1-5 1.1-2.6 0-3.4-.7-5.1-3.9-1.1-2.2-2.4-4.2-3-4.6-.5-.3-2.9 1.2-5.3 3.4zM395.6 259.6c2.4.4 3 1 2.7 2.4-.3 1 0 2.1.6 2.4.7.4 1.1-.1 1.1-1.4 0-1.6.5-2 1.8-1.6.9.3 4.7.7 8.4.8 4.6.1 6.5.5 6.1 1.3-.2.8.7 1.3 2.4 1.4 8.6.4 11.9.7 13.1 1.5 1.8 1.1 7.2-.3 7.2-1.9 0-.9 1.1-1.3 3-1.3 1.6.1 3.6-.5 4.5-1.2 1.3-1.1 1.9-1 3.4.4 1.1 1 2.5 1.4 3.6 1 1.5-.6 1.7-.3 1.1 1.9-.3 1.5-.4 2.7-.2 2.7 1.6 0 3.6-1.4 3.6-2.6 0-.8.7-1.4 1.5-1.4s1.5.9 1.5 2 .6 2 1.4 2 2.2 1 3.1 2.2c1.3 2 1.8 2.1 3.5 1 1.7-1 2.1-1 2.6.3.8 2 2.4 1.9 2.4-.1 0-1.3.3-1.4 1.4-.5.7.6 2.1.9 3 .5 1.2-.4 1.6 0 1.6 1.5 0 2.2 1.6 2.9 2.2.9.6-1.6 3.8-.2 3.8 1.7 0 .8-.5 1.5-1.1 1.5-.5 0-.7.4-.4 1 .3.5 2.1 1 3.9 1s3.6.3 4 .7 2.3.8 4.2.9c1.9 0 3-.2 2.4-.6-1.2-.7-.3-4 1.1-4 .5 0 .9 1 .9 2.1 0 1.8.2 1.9 1.5.9s1.9-1 3.3.4c1 .9 2.4 1.6 3 1.6 2.2 0 9.2 3.5 9.2 4.5 0 .6 1.2 1.1 2.8 1 2.1 0 2.6.4 2.4 1.9-.3 1.4.1 1.7 1.2 1.3 1.7-.7 6.5 1 7.9 2.8.6.7 1 .6 1.4-.3 1-2.4 2.3-1.1 2.3 2.2 0 1.9.5 3.8 1.2 4.2s.8.3.4-.4c-1-1.6 3.3-3.7 4.7-2.3.9.9.9 1.4 0 1.9-.7.5-1 1.7-.6 3 .5 1.9 1 2.2 3.2 1.7 2-.4 3.2 0 4.6 1.5 1.8 2 1.8 2-.8 2-1.7 0-2.7.6-2.7 1.4s-.3 2.1-.6 3c-.4 1.2 0 1.6 1.5 1.6 1.2 0 2.1.6 2.1 1.4s1.2 1.9 2.8 2.5c2.6 1 8.2 5.4 8.2 6.6 0 .3-.7.5-1.5.5-1 0-1.5 1.1-1.5 3.5 0 1.9.5 3.5 1 3.5.6 0 1 1 1 2.2.1 1.3.7 3.4 1.4 4.7s1.1 3.2.8 4.3c-.5 2.1-4 2.4-4.8.4-.7-1.8-3.4-.9-3.4 1 0 .8.6 1.4 1.4 1.4.7 0 1.9.7 2.6 1.5.7.9 1.9 1.4 2.6 1.1s1.6.5 2 1.7 1.4 2.7 2.2 3.3 1.5 2.5 1.5 4.3c0 1.9.5 3.1 1.4 3.1.7 0 1.3.4 1.3.9 0 1.1-2.5 2.1-5.3 2.1-1.9.1-2 .2-.6 1.3 3.7 2.9 2.7 5.7-1.9 5.7-1.4 0-1.5-.2-.2-1 2.6-1.6-1.1-2.9-4.4-1.5-2.5 1.1-5.2-.7-4.8-3.2.3-2.3-3.8-4.9-6.3-3.9-1.5.5-1.5.7 0 2.2s1.5 1.8-.2 3.6c-1.8 2-1.8 2-2.1-.6-.2-1.4-.8-2.6-1.3-2.6s-.9-.7-.9-1.6c0-.8-.4-1.3-1-.9-.5.3-.7 1.2-.3 2 .4 1.1-.3 1.5-2.7 1.5-1.7 0-2.9.4-2.6.9 1.3 2-6.6.3-8.6-1.9-1.6-1.7-2.7-2.1-5.2-1.5l-9.1 1.5c-9.8 1.5-12.5 2.2-12.5 3.4 0 .6-.4.5-.9-.3-.7-1.1-1.6-.7-4.3 2.1-1.8 2-3.2 4-3.1 4.5.2.5-.3 1.8-1.2 2.8-1.4 1.9-1.4 1.9-1.6-1-.1-1.7-.2-3.8-.1-4.8.1-.9-.4-1.7-1.2-1.7-1.4 0-2.6 2.9-2.6 6.7 0 1.6-.4 2.1-1.5 1.7-.9-.4-1.6 0-1.6.7-.1.8-.3 3.2-.5 5.4s-.8 4.1-1.4 4.3c-.5.2-1 .8-1 1.3 0 .6.5.7 1 .4.6-.3 1-.1 1 .4 0 2.7 2 .7 2.6-2.4.7-3.8 3.1-4.4 2.6-.7-.5 3.4.7 2.6 2.5-1.6 1-2.4 1.8-3.2 2.1-2.2.3.8 1 1.8 1.6 2.2.8.6.7 1.1-.3 1.7-.9.6-1 1.1-.2 1.5 1.2.8 2.6-2.1 3.6-7.7.8-4 3-7.6 4-6.5.4.4 0 2.3-.9 4.2s-1.6 4.9-1.6 6.7c0 3.1 0 3.2 2 1.4 1.9-1.8 2-1.7 2 .1 0 1.1.8 3 1.7 4.4 1.6 2.2 1.6 2.3 0 1.7-.9-.3-1.7-.2-1.7.3 0 .6.4 1 .9 1s1.2 1.2 1.6 2.7c1.1 4.4 2.3 5.4 5.1 4.1 3.1-1.5 4.2-.3 2 2.1-2 2.1-1.3 2.8 2.7 2.6 2.2-.1 2.6.3 2.1 1.7-.7 2.2 1.1 2.4 2 .2.3-.8 1-1.2 1.6-.9s1.3-.1 1.6-.9c.7-1.7 3.4-2.1 5-.7.5.4 2.1 1.1 3.7 1.5 2 .5 2.7.3 2.7-.9 0-1.7 1.6-2 2.5-.5.4.7 2.8.8 6.5.4 5.1-.6 6.3-.3 10.2 2 2.5 1.4 5.4 2.6 6.6 2.6s2.2.4 2.2 1c0 .5-.4 1-.9 1s-.2 1.4.7 3.2c.8 1.8 1.7 2.7 2 2 .6-2 3.2-1.4 3.2.8 0 1.1.5 2 1.1 2s.9.7.5 1.5c-.3.9 0 1.5.9 1.5.8 0 1.5.5 1.5 1.1 0 .5.4.8.9.5s1.4.8 2.1 2.4c.7 1.7 1.7 3 2.2 3 .6 0 .5.7-.2 1.5-1 1.2-1 1.5.2 1.5.8 0 2.5 1.1 3.8 2.5s2 2.5 1.6 2.5-.1 1 .6 2.2c.7 1.3 1.1 2.9.9 3.6-.1.8.7 1.6 1.8 1.9 1.2.3 1.7 1.1 1.4 1.9s0 2 .6 2.8c.9 1 .8 1.5-.2 1.9-2.1.8-7.1-.4-8.4-2.1-1.1-1.4-1.5-1.4-3.1.1-1.5 1.3-4.1 1.7-12.3 1.8-10.2.2-10.1.2 7.1 1.5 9.6.7 18.7 1.7 20.2 2.1 2.8.8 3.5 3.1.8 2.5-.8-.2-17.8-.6-37.7-.9-20-.3-36.3-.9-36.3-1.4s.3-.9.8-1c9.8-.9 6.9-2.1-3.8-1.5-14.9.9-19.9 1.5-34 4.2-17.1 3.3-17.2 3.3-12.1-2.3 1.6-1.8 2.7-3.4 2.4-3.7s.6-.8 2-1.1c1.8-.5 2.4-1.2 2-2.2-.3-.8-.2-1.8.3-2.2 1.6-1.1 4.4-5.9 4.4-7.6s1.1-2 2.6-.5c.6.6 1 .2 1.1-1.2.1-1.2-.3-2.6-1-3-.9-.6-.8-1 .3-1.7.8-.6 1.2-1.2 1-1.4-.6-.6-9.4 3.4-9.8 4.5-.2.4-1 .8-1.8.8s-1.4.4-1.4.9c0 .9-3.2 2.2-6 2.5-.8 0-1.6.8-1.6 1.6-.1.8-.2 2.1-.3 2.7-.2 2-2.2 1.5-4.9-1l-2.4-2.2.3 3.8c.2 2.4-.1 4.1-1 4.6-.7.5-1.3 1.2-1.2 1.7.1 2.1-1.2 5.4-2.1 5.4-.5 0-1.6 1.6-2.4 3.5-1.3 3.1-1.9 3.5-5.2 3.6-2 0-4.6.4-5.7.9-1.9.8-1.9.9.2.9 1.2.1 2.5.6 2.8 1.1.8 1.3-4 3.1-6 2.4-1.7-.7-2-2.4-.5-2.4.6 0 1-.4 1-.9 0-.4-3.9-1.1-8.7-1.5-19.1-1.4-26.3-3-26.3-5.7 0-1-.3-1.8-.7-1.7-.5.1-1.9-.4-3.2-1.1-2.5-1.4-11-1.9-12.9-.7-.6.3-6.8-.2-13.9-1.3-7-1.1-15.9-2.3-19.8-2.6-3.8-.3-8.1-.8-9.5-.9-17.3-2.2-48.3-2.6-69.5-1l-22.7 1.6c-3.7.1-8.2.9-10 1.8-9.5 4.4-12.3 29.2-6.8 61.5 2.2 13.4 4.4 20.1 6.8 21.4 3.2 1.7 24.4 6.2 35.7 7.6 10 1.2 12.5 1.8 14.5 3.7 1.6 1.5 4.4 2.3 10.4 3l12.6 1.5c2.5.3 5.4.5 6.5.5s5.6.7 10 1.5c11.5 2.1 28 1.6 35.5-1.2 2.5-.9 5.4-1.9 6.5-2.2s2.9-1.2 4-2c1.1-.7 2.6-1.3 3.4-1.3s2.9-1.1 4.7-2.5 3.7-2.5 4.2-2.5c1 0 12.8-11.4 16-15.5 1.3-1.7 4.1-5.5 6.3-8.5 2.1-3 4.4-6 4.9-6.7.6-.7 1-1.6 1-2.1 0-.6 1-1.2 2.2-1.5 1.7-.5 1.9-.9 1-2-1-1.1-.9-1.7.3-2.7s1.5-1 1.5.4c0 .9.5 1.6 1.1 1.6s.9-.6.6-1.4c-.8-1.9 1-3.2 5.5-4s12.8 2.5 13.5 5.5c.3 1 1.1 1.9 1.8 1.9s1.5 1.9 1.8 4.3c.4 2.4 1.4 5.9 2.3 7.8l2.8 5.4c.5 1.1 1.6 3.3 2.5 5 .8 1.6 1.5 4.5 1.5 6.5.1 1.9.7 4.1 1.4 4.8.6.7 1.2 2.6 1.2 4.2s.5 3.2 1 3.5c.6.3 1 1.5 1 2.6s.7 2.2 1.5 2.5c1.7.7 2.1 3.4.4 3.4-.6 0-.8.8-.4 1.9.3 1.1.1 2.2-.5 2.6-.5.3-1 0-1-.7 0-.8-.6-.6-1.7.5-1.5 1.5-1.6 1.9-.4 2.6.7.5 1 1.4.7 2-1.1 1.7 1.9 4.2 4.1 3.4 1.4-.5 1.6-.3.6.7s-.8 1.9.8 4.2c1.1 1.5 2.6 2.8 3.2 2.8.7 0 .4-.7-.5-1.4-1.8-1.4-2.4-3.6-1-3.6.5 0 1.8.9 3 2 1.8 1.7 2.5 1.8 4.1.8 2.5-1.6 3.1-.9 3.8 4.1.3 2.3 1 4.1 1.4 4.1.5 0 .9 1.1.9 2.4s.7 2.9 1.5 3.6c1.9 1.6 1.9 2.5-.1 4.4-2 2-3.4 2-3.4 0 0-1.1-.5-1.4-1.7-1-3.3 1.3-8.3 1.7-8.3.7 0-.7-.9-.6-2.7.2-2.1.9-2.7.9-3.1-.1-.7-2.1-1.7-1.3-4.1 2.8-1.2 2.2-2.8 4-3.6 4-.7 0-2.3 1.2-3.4 2.6s-2.6 2.4-3.3 2.3-2.6.4-4.3 1.1c-1.6.7-4.9 1.2-7.2 1.1-3.4-.2-4.7.2-6.5 2.2-1.5 1.6-4.1 2.8-7.5 3.4-5.5 1-6.6.8-7.5-1.8-1-2.6-17.4-8.7-26.3-9.7-11.4-1.3-13.3-1.2-13.7.6-.2.8-1.4 1.6-2.7 1.7-3.2.2-7.2-4.3-8.9-10.2-1.1-3.8-1.5-4.2-3.2-3.3-1.8 1-2.2 1.8-3.4 7.3-.9 3.7 1.1 10.7 2.9 10.7.8 0 1.9.9 2.5 2s1.5 1.8 1.9 1.5c.5-.3 2 .6 3.2 2 1.3 1.3 3 2.5 3.7 2.5.6 0 1.2.7 1.2 1.5 0 1.4.3 1.3 2.5-.1 2.4-1.5 2.5-1.5 3.6 1 .7 1.4 1.8 2.6 2.6 2.6.7 0 1.3.4 1.3 1 0 .5.6.7 1.4.4.9-.4 1.6.2 1.8 1.7.2 1.2.9 2.5 1.7 2.7 1 .3 1.2-.1.9-1.6-.5-1.8-.4-1.9 1.3-.9 1 .6 2.2 2.6 2.5 4.4.4 1.9 1.2 3.3 2 3.3s1.4.6 1.4 1.4c0 1.2.4 1.2 3 0 1.7-.9 3-2 3-2.5 0-1.7 1.8-.9 2.3 1.1.3 1.3 1.4 2 3.1 2 1.5 0 3.1.8 3.8 2 .7 1.1 2.1 2 3 2 1 0 1.8.4 1.8 1 0 .5.9 1 2 1 2.6 0 4.2 3.8 2.6 6.2-1.4 2.3-.3 3.2 4.1 3 2.7-.1 4.3-.9 6-2.9 1.2-1.6 2.2-2.2 2.3-1.5 0 .8.8 1.2 1.8.9.9-.2 3 .3 4.6 1.1 2.6 1.3 2.8 1.6 1.4 2.6-1.2.9-1.3 1.7-.7 2.9 1.4 2.4 2.8 2.1 3.9-.8.5-1.4 1.4-2.5 2-2.5.5 0 1 1.1 1 2.5 0 3 3.2 3.5 5.2.7.7-1 2.8-2.9 4.7-4.2l3.4-2.4-.6 3c-.3 1.6-.4 2.3-.1 1.6.3-.6 1.2-1.2 2-1.2.9 0 1.2-.5.8-1.2s-.3-.8.4-.4 1.2 1.4 1.2 2.2 1.1 1.9 2.5 2.4c1.6.6 2.5 1.7 2.5 3 0 1.7.4 2 2 1.5s2-.2 2 1.9c0 1.7.5 2.6 1.6 2.6 1.5 0 1.5.2.2 2.2-1.9 2.9-3.8 3.4-3.8 1.1-.1-1.6-.2-1.6-1.3-.3-.9 1.1-3.4 1.5-9.7 1.5-4.7 0-11.3.5-14.6 1.1-3.9.7-9.6.8-15.5.3-5.2-.4-9.7-.5-10-.3-.4.2-1.9 0-3.4-.6-3.9-1.5-24.7.6-31.5 3.2-8.8 3.3-10.3 3.9-13.5 5.4-1.6.8-3.9 1.4-5 1.3-4.3 0-13.5 1.2-15.9 2.1-1.4.5-3.3.7-4.2.3-.9-.3-1.9-.2-2.3.3-1.1 1.6-5.1 3.5-5.1 2.4 0-.5-.7-1-1.5-1-2 0-1.9-1.9.1-4.1.9-1 1.7-3.3 1.7-5.1.2-2.7-.1-3.2-1.6-3-1 .2-2.7-.6-3.6-1.7-2.5-2.8-2.9-2.6-2.7 1.1.1 3-.2 3.3-3.1 3.6-2.5.2-3.3-.1-3.3-1.3 0-.9.7-1.5 1.6-1.3 1.8.3 2.8-3.8 1.2-4.8-1.5-.9-.8-4.4 1.3-6.5 1.9-1.9 2-4.9.1-4.9-.5 0-2.3 1.3-4.2 3-1.8 1.6-3.6 2.7-4 2.5s-2.3 1.8-4.4 4.4c-4.3 5.7-8.6 7.4-8.1 3.2.3-2.7-.5-8.4-1.1-7.8-.2.2-.8 2.7-1.4 5.7-1.1 6-2.4 8-5.1 8-1 0-2.1.5-2.5 1.2s-.3.8.4.4 1.2-.1 1.2.9c0 1.2-.6 1.5-2 1-1.7-.5-2.3.1-3.6 3.1-.8 2-1.3 4.7-1 6 .3 1.2.2 2.6-.4 2.9-1.7 1.1-1.1 3.7 1 4.2 1.3.3 2 1.4 2 2.9 0 1.7.4 2.2 1.5 1.8 1.1-.5 1.7.3 2.1 2.5.4 1.7 1.3 3.6 2 4.2.8.6 1.4 1.7 1.4 2.5 0 .7.7 2 1.6 2.8.9 1 1.6 3.6 1.7 7.1.1 3 .4 5 .5 4.5.2-.6 1-1 1.8-1 1.2 0 1.3.8.8 3.7-.6 3.4-.6 3.6 1.7 3 1.3-.4 3.2-.7 4.2-.7s1.7-.8 1.7-1.9c0-1 .6-2.4 1.4-3 .8-.7 1.7-2.3 2-3.6.4-1.4 1.3-2.5 2-2.5 2.4 0 7.7 3.3 11.6 7.3 2.8 2.9 4.4 3.7 6.5 3.5 1.8-.2 3 .2 3.3 1.2.5 1.3.3 1.3-1.1.1-2.4-2-2.2.4.3 2.9s3.7 2.5 5 0c1.5-2.8 6.6-2.7 7.5.1.4 1.2 1.2 1.8 2.1 1.5.7-.3 1.6-.1 1.9.4.7 1.1 3.3.9 5.3-.4.9-.5 2.3.1 4.1 1.8 3.2 3.1 4.1 2.6 4.1-2.5 0-4.8-.8-6.9-2.7-6.9-2.1 0-1-2.4 1.3-2.8 1.7-.2 5.4-5.1 5.4-7.2 0-1.2-2.9-4-4.1-4-.6 0-.7.4-.4 1 1 1.7-2.4 6.9-5.1 7.6-1.8.5-3.2 0-4.9-1.6l-2.4-2.2-2.5 2.8-2.6 2.9-2-2.3c-2.7-3.3-4.7-9.9-3.3-11.3.8-.8 1.8-.6 3.5.5 3.2 2.1 3.8 1.4 2.6-3.6-.5-2.3-.5-4.5 0-5s3.2.2 6.3 1.6c2.9 1.4 5.7 2.2 6.1 1.8s.3-2.2-.4-3.9c-1.6-4.3.1-7.9 4.1-8.8 2.3-.5 4.5 0 8.7 2.2 6.2 3.1 5.3 3.4 10-3.1 2.5-3.6 10.7-2.5 14.4 1.8 1.1 1.4 1.5 1.3 3.6-.9 2.9-3.2 9-3.4 12.7-.5 1.4 1.1 3.1 2 3.8 2s2.3.9 3.5 2.1c2.7 2.6 4.4 1.8 4.4-2.1v-2.8l9.9.3c6.1.2 11.3 1 13.7 2 3.2 1.4 4.5 1.4 7.5.5 3-1 4.2-1 7.3.5 2 1 3.6 2.4 3.6 3.1 0 2.8 3 2.6 6.5-.5 4.2-3.6 7.8-4.7 11.4-3.5 2.3.9 2.6 1.5 2.6 5.6 0 2.5.3 4.9.6 5.2.3.4 2.3-.7 4.4-2.4 2.8-2.2 4.1-2.7 5.5-2 2.7 1.4 3 3.3 1.3 8.9-1.6 5.7-4 7.6-8.4 6.7-3.5-.7-3.6-.2-.4 4 1.5 1.9 3.1 3.1 3.9 2.8s1.7-.1 2.1.5c1 1.7 4.3 1.3 5.4-.7 1-1.6 1.2-1.5 3.1.8 1.1 1.4 2 3 2 3.6 0 1.9-2.6 3.5-4.5 2.8-1.2-.5-2.3-.1-3.1 1.1-.8 1-1.7 1.6-2 1.2-.4-.3-1.4.4-2.4 1.6-1.5 1.8-2 1.9-3.3.8-.9-.7-2.4-1.1-3.4-.9-1.4.2-1.7 1.1-1.5 3.8.4 5.3-.8 6.5-5 5.1-1.9-.6-4.6-2.3-5.8-3.6-2.5-2.6-5.4-3.3-6.6-1.4-.3.6-1.5.9-2.5.6-1.2-.3-2.3.2-2.9 1.3-1 1.9-1.9 1.8-10.2-1.2-1.8-.6-6.2-1.3-9.8-1.4-7.8-.4-11.8-.9-12.6-1.6-.3-.3-1.8-.1-3.3.5-3 1.1-10.1.2-10.1-1.3s-3.2-1.2-9.5 1c-5.2 1.8-6 1.8-7.5.5-1.9-1.7-5.6-2-6.5-.4-.4.6-1.3.8-2.1.5s-1.7.1-2.1 1c-1.5 3.9-7.5 3.6-11-.6-1.1-1.3-1.3-1.2-1.9.7-.3 1.1-1.4 2.3-2.4 2.6s-2.1 1.8-2.5 3.7c-.8 3.6.1 5.2 1.8 3 1-1.3 7-2 8-1 .1.1 1.2.4 2.4.5 4.1.4 8.1 2.7 8.7 4.8.5 2.2.5 2.2 2 .2 1.3-1.7 1.8-1.8 3.5-.8 1.1.7 2.2.9 2.5.4.9-1.3 17.7-.5 18.6.9.5.8 1.8 1 3.5.6 2-.5 3.1-.2 4.1 1.1.8 1.1 1.3 1.3 1.4.5 0-1.5 3.6-1.6 4.5-.1.5.7 1.1.5 1.8-.5 1.2-1.4 4.1-1.6 34.2-3 3.3-.1 7.5-1 9.4-2 2.4-1.3 3.6-1.5 4.4-.7 1.6 1.6-.3 4.5-3.2 4.9-1.1.2-2.1.9-2.1 1.7 0 1.6-7.6 7.4-10.7 8.2-1.3.3-2.3 1.2-2.3 1.9 0 .8-1 1.9-2.2 2.3-2 .8-2.1 1-.5 1.6 2.7 1.1 2 3.5-1.3 4.1-1.6.4-3 1-3 1.5s-.9.9-2.1.9c-1.5 0-1.9.5-1.5 1.5.3.8 0 1.5-.7 1.5s-1.8.9-2.5 2c-1.3 2.1-5.2 2.8-5.2 1 0-.7-.7-.7-2.1 0-1.1.7-2.8.9-3.6.6-.9-.4-2.4.1-3.3.9-1 .9-2.6 1.6-3.6 1.5-1.1 0-3.9-.1-6.3 0-2.6 0-4.8-.5-5.2-1.2-.6-.9-1.2-.8-2.7.5-2.1 1.9-4.2 2.2-4.2.7 0-1.7-2.5-1.1-3.8 1-.7 1.1-1.9 2-2.7 2s-1.9.8-2.4 1.9c-.6 1-2.1 1.8-3.5 1.8-1.6 0-2.8-.6-3.1-1.8-.7-2-1.7-2.4-2.9-1.2-.4.5-1.1.8-1.6.8-1.4 0-8 7.3-9 10-.9 2.4-.4 5.5.9 5.5 1.5 0 5.1-3.2 5.1-4.6 0-.8.5-1.4 1-1.4 1.6 0 1.2 8.6-.5 10-.9.7-1.4 2-1.1 2.9.2.9.7 2.8 1 4.3.4 1.6 1.3 2.8 2.1 2.8s1.5.9 1.5 2 .7 2 1.5 2a1.54 1.54 0 0 1 1.5 1.5c0 .8.9 1.5 1.9 1.5 3.8 0 3.4 10.9-.4 12.4-1.1.4-1.5 2.1-1.5 6 0 5.6-1.2 7.2-4.6 5.9-1-.4-1.7.1-2.1 1.6-.6 2.4-4.5 2.9-8.6 1-2.2-1-2.9-.7-6 2.6-2.4 2.5-4.1 3.6-5.2 3.2-.9-.4-1.8-.1-2.1.8-.8 1.9-3.5 1.9-6 0-1-.8-2.9-1.5-4-1.5-1.2 0-3.3-.9-4.8-2.1-1.5-1.1-3.3-1.9-4-1.6s-3-.8-5-2.4c-2-1.7-4.1-2.7-4.6-2.4-.6.4-2.7-.6-4.7-2-2.6-2-3.7-2.4-4.3-1.5-1.1 1.7-4-2.7-4-6.1 0-3.2-.9-4.2-2.6-2.8-1.1.9-1.6.5-2.4-1.6-.9-2.2-1.3-2.5-2.5-1.5s-1.8.7-3.2-1.9c-1.4-2.5-2.3-3-4.1-2.6-1.6.4-2.4 0-2.9-1.2-.4-1-1.3-2.2-2.1-2.7-.7-.4-2-2.3-2.8-4.2-1-2.3-1.9-3.2-2.9-2.8-.8.4-1.5.1-1.5-.5s-.7-1.1-1.5-1.1-1.9-1.7-2.5-4.1c-.8-2.9-1.5-3.9-2.6-3.5-1 .4-1.4-.3-1.5-2.7v-3.2l-1.7 3.5-1.8 3.8c-.2.2-1.1-.1-2.1-.7s-1.2-1.1-.5-1.1c1.4 0 1.7-3 .2-3-1.2 0-1.3-3.3-.1-4.5.5-.6 1.2-2.1 1.6-3.4.6-2 .1-1.8-3.3 1.7-2.2 2.2-4.2 4.7-4.5 5.4-.7 2.1-4.2-.5-4.2-3.3 0-1.3-.6-3.4-1.3-4.7-.9-1.6-1-2.7-.2-4.2.8-1.6.8-2-.4-2-.9 0-1.6-1.1-1.8-2.8l-.3-2.7-1.3 2.3c-.9 1.5-1 2.7-.4 3.5 1.1 1.3 1.5 3.9 1.3 7.7l-.2 2.5-1.1-2.5c-.6-1.4-1.3-3.4-1.5-4.5-.2-1-1.1-3.1-2.1-4.5-.9-1.4-2.1-3.4-2.7-4.4-1.3-2.5-3.5-3.2-3.5-1.1 0 2.2-1.9.9-3.1-2.3-.7-1.7-.6-2.9.1-3.6 1.6-1.6 1.2-2.4-2-3.1-2.2-.5-3-1.2-3-2.8s-.3-1.8-.9-.8c-.6.9-1.1 1-1.5.2-.4-.6-1.8-1.1-3.2-1.1s-2.7-.7-3-1.5c-.4-.8-1.5-1.5-2.5-1.5-1.3 0-1.9-.7-1.9-2.4 0-3.6-1-5.5-2.6-4.9-.8.3-1.4 0-1.4-.6s-.7-1.1-1.5-1.1-1.7-1.1-2.1-2.5c-.3-1.4-1-2.5-1.4-2.5s-1.9-1.2-3.4-2.7c-1.9-1.9-2.6-3.3-2.2-4.9s0-2.7-1.5-3.8c-1.2-.8-1.8-1.9-1.5-2.4.3-.6-.1-1.7-.9-2.5-.8-.9-1.5-2.1-1.5-2.7s-1.1-3-2.4-5.3c-1.4-2.3-3.4-7.4-4.6-11.2-1.2-3.9-2.6-7.9-3.1-9s-1.9-6.5-3-12c-2.2-10.4-2.6-16.6-3.2-64.7-.3-17.6-.7-24.1-1.6-25.2-1.1-1.3-1.1-1.9-.1-3.1s.9-1.6-.4-2.1c-1.8-.7-2.2-3.9-.6-4.9.5-.3 1-1.4 1-2.3 0-1.2-.3-1.3-1.2-.4-2.1 2.1-2.9 1.3-2.3-2.1.3-1.7.6-4.1.6-5.2-.2-9 .2-16.7 1-20.3.5-2.4 1.1-6.9 1.4-10 .9-13.3 4.6-30.2 6.5-30.2.4 0 2.9-1 5.6-2.2 5-2.3 5.5-2.5 8.7-2.7 1.7-.1 1.8-.8 1.2-9.4-.6-7.4-1.1-9.5-2.6-10.6-2.3-1.6-2.5-3.1-.4-3.1 1.2 0 1.5-1.6 1.6-7.8.2-9.3 0-10.5-1.4-11.4-1.7-1-5.5 1.3-6.1 3.7-.5 1.8-5.7 5.5-7.9 5.5-.9 0 .3-13 1.5-15.8 1.3-3 1.8-6.2 1.8-10.6 0-1.5.4-3.3.9-4 .5-.6 1.7-3.4 2.6-6.3 1.2-3.6 2.4-5.4 3.9-5.9 1.1-.4 2.4-1.2 2.8-1.8 1.1-1.6 1-4.8-.2-4.1-.6.3-1 .1-1-.5 0-.7.8-.9 2.1-.5 1.7.6 2 .3 1.8-1.7-.2-1.2 0-3.2.3-4.3s.9-3.2 1.2-4.8c.4-1.5 1.3-2.7 2.1-2.7s1.5-.8 1.5-1.8.3-2.2.7-2.6.6-2.5.4-4.7c-.2-3.4.1-4.1 1.8-4.6 1.1-.3 1.9-.9 1.6-1.3s.2-2.2 1.1-3.9c1.1-2.3 1.3-3.5.5-4.5-.7-.9-.6-1.9.5-3.4.9-1.3 1.7-4.5 1.8-7.1.1-2.8 1.1-6.2 2.1-7.8 1.1-1.5 1.8-3.4 1.7-4-.2-.7.2-2.2.8-3.4 1-1.7.8-2.4-.9-4-2.4-2.3-2.6-3-.9-4.7.8-.8.8-1.5-.2-2.7-1.1-1.3-1-1.8.3-3.3 1.1-1.2 1.3-2.2.7-3.2-.6-.8-.7-2.7-.4-4.3s.1-2.7-.5-2.7-1.1-.6-1.1-1.4c0-1 .9-1.4 2.6-1.3 1.5.1 2.9-.4 3.1-1.1.3-.6-.2-1.2-1.1-1.2-1.9 0-2.1-2.1-.4-3.8.9-.9.8-1.2-.5-1.2-2.7 0-2-1.7 1.3-2.8 2.1-.8 2.8-1.5 2.4-2.7-.6-1.4-.8-1.4-2.5.1-2.2 2-2.4.8-.7-3.3.6-1.5 1-3.3.9-3.9-.1-.7 1-2.2 2.4-3.5 1.3-1.3 2.5-3 2.5-3.8 0-1.6 9.6-11.1 11.1-11.1 1.4 0 3.9-2.6 3.9-3.9 0-.6.6-1.1 1.4-1.1s1.6-.7 2-1.5c.3-.8 1.2-1.2 2.1-.9 1.1.5 1.4.2.9-1-.3-.9-.2-1.6.2-1.7 3.2-.3 4.9-1 5.6-2.4.5-.8 1.4-1.3 1.9-.9.6.3 1.7-.3 2.5-1.5s2.2-2.1 3.1-2.1 2.2-.8 3-1.8c1.3-1.6 1.4-1.5 1 .5-.7 3.2 1.1 3.9 1.9.8.3-1.4 1.4-2.6 2.3-2.7s2.3-.2 3.1-.3a5.79 5.79 0 0 0 2.8-.9c.7-.4 1.6-.5 1.9-.2s1.5-.1 2.5-.9c1.1-.7 2.6-1.1 3.3-.9.7.3 1.6.1 2-.5.3-.6 1.5-1.1 2.5-1.1 1.1 0 3.9-1.1 6.4-2.5s5.2-2.5 6-2.5c.9 0 1.6-.6 1.6-1.4 0-1.5 4.8-2.8 5.6-1.5.3.5 1.3.5 2.2 0 3.8-1.9 7-3 12.2-4.2 3-.6 6.1-1.6 6.7-2.1.7-.6 2.3-.8 3.6-.6s2.9-.2 3.6-1c.8-.8 2.4-1.2 4-.9 1.4.3 5.8.1 9.6-.3 7.2-.9 19.6-.6 25.1.6zm100.7 15.1c.4.3-.2 1.3-1.4 2.1-2.4 1.7-3.7.9-1.9-1.3 1.4-1.6 2.3-1.9 3.3-.8zM555 309c0 .5-.2 1-.4 1-.3 0-.8-.5-1.1-1-.3-.6-.1-1 .4-1 .6 0 1.1.4 1.1 1zm10 30.5c0 1.4-.4 2.5-1 2.5-1.1 0-1.4-3.3-.3-4.3 1.1-1.1 1.3-.8 1.3 1.8zm-15.7 27.9c.6 1.6-.2 2.8-1.4 2-1.2-.7-1.1-3.4 0-3.4.5 0 1.1.6 1.4 1.4zm7.7 1.4c0 1.3-1.2 2.2-2.2 1.6s-.1-2.4 1.3-2.4c.5 0 .9.4.9.8zm8.5 2.2c.3.5 1.5 1 2.6 1 1.6 0 1.9.4 1.3 2.2-.3 1.3-.8 2.5-1 2.7-.6.7-2.4-1.1-2.4-2.6 0-.9-.6-1.3-1.5-.9-1 .4-1.5-.1-1.5-1.4 0-2.1 1.5-2.7 2.5-1zm-60.2 22.8c-.6 2.4-2.3 3-2.3.9 0-1.3 2.1-3.9 2.6-3.4.2.2.1 1.3-.3 2.5zm-170.9 63.7c6.1 1.1 8.4 2 10 3.8 1.2 1.3 3.8 3.2 5.8 4.1s4 2.1 4.3 2.6c.3.6 1.5 1 2.6 1 1 0 1.9.4 1.9.9s.9 1.1 2 1.4c2 .5 2.8 2.7 1 2.7-.5 0-1 .7-1 1.5s.8 1.5 1.7 1.5c1.4 0 1.3.3-.5 1.6-1.3.9-2.1 2.2-1.8 3 .8 2.2-1.2 2.6-3.1.7-4.4-4.3-26-10.1-27.7-7.5-.3.4-4 .9-8.3 1-9.2.3-15.7.8-27.3 2.3-11.7 1.5-13.8 1-8-2.1 3.2-1.7 4-2.5 2.7-2.8-4.9-1-25.7 9-25.7 12.5 0 .7-2.5 2.9-5.5 5-4.9 3.2-5.4 3.8-4.2 5.1 1.3 1.2 2.3 1.1 7.7-.8 5.5-2 8-2.2 23.4-2.1 9.5.1 18.8.6 20.7 1.1 1.9.6 7.7 1 12.9 1 9.1 0 15.1.9 28.5 4.5 9.6 2.5 10.8 2.7 14.2 2 3.4-.6 4.6-3.6 2.1-5.1-.8-.5-.2-1.1 1.7-1.6 1.8-.4 3.4-.3 4.3.4.9.8 1.6.8 2 .1 1-1.5 4.7-2.2 6.5-1.1 1.4.7 1.8.2 2.3-3.2.4-2.2 1-4 1.5-4s.9-1.8.9-4c0-3.8 1.3-5.4 2.3-2.8.2.7.8 1 1.2.5.5-.4 0-1.3-1-2.1-1.6-1.2-1.7-1.6-.6-3 1.2-1.4 1.1-1.9-.4-3.6-1-1.1-3.1-2-4.8-2-2.9 0-14.7-5.8-14.7-7.2 0-1.2 10.2 2.1 20 6.4 7.2 3.2 12 8.7 12 13.8 0 1.1.5 2 1 2 .6 0 1 .7 1 1.5 0 3-2 1.4-3-2.5-.6-2.2-1.4-4-1.9-4-1.8 0-1.9 1.4-.4 5.1 1.4 3.7 1.4 5.1.1 17.6-.3 2.4-1.1 4.9-1.7 5.7-.7.8-1 2-.6 2.6.3.5.1 1-.5 1s-.8.5-.5 1c.9 1.5-5.7 9.3-9.9 12-8.8 5.4-29.6 8.5-64.1 9.6-20.6.6-27.2.1-47-3.5-10.6-1.9-19.7-5-21.1-7.2-.3-.6-1.2-.8-2-.5-1.6.6-2.9-1-1.5-1.8.6-.4.6-1.8 0-3.9-1.8-5.7-2.3-29.9-.9-38.4 2.1-12.6 3.9-14.9 14-18.3 7.3-2.4 28.2-4 36.6-2.8 3.7.5 5.3.4 6.4-.7 1.9-2 23.5-2 34.4 0zm205.2 2.4c.5.5 4.1 1.1 7.9 1.4 36.5 2.7 44.9 4.1 52.4 8.9 5.5 3.4 7.7 6.7 8.6 12.7.4 2.5 1.1 5.1 1.7 5.8.5.7.6 1.8.1 2.5-.4.7-1.3 7.1-2 14.3l-1.6 14.5c-1.2 5.5-3.2 8.8-6.7 11.4-2.2 1.7-4 3.5-4 4.1 0 1.5-4 3.3-6.4 2.9-1.1-.1-3.6.4-5.5 1.2-2.1.9-10.2 2-19.7 2.6-18.8 1.3-47-.1-54.6-2.7-2.5-.8-6.8-1.8-9.4-2.2-2.7-.3-5.3-1.2-5.9-1.9-.7-.9-2.4-1-5.7-.5-7.1 1.2-12.5-1.2-15.5-6.8-1.3-2.5-3-5.2-3.8-6.1s-1.5-2.4-1.5-3.3-.9-4-1.9-6.9c-5.6-15.5-6.3-22.9-3-30.3l1.3-3 .3 3.5c.2 1.9.7 4.2 1 5s.6 1.9.5 2.5c-.2 2.2 7.3 5.9 12.1 6 3.7 0 4.7.4 4.7 1.6 0 4.5 4.5 4.7 18 .9 9.6-2.7 14-2.9 52.5-3.1 30.8-.2 32.2-.1 36.9 1.9 5.6 2.5 7.5 2.7 10 .9 1.5-1.1 1-1.5-4.2-4-6.8-3.1-8.5-4.7-8.6-8.4-.1-2.3-1.1-3-7.9-6-7.6-3.2-15-4.3-16.2-2.4-.3.5-3.3.8-6.8.6-3.4-.2-10.3-.4-15.2-.5-12.6-.3-15.9-.9-14.4-2.6.6-.7 3.3-1.7 6-2 2.7-.4 4.6-1 4.3-1.5-.6-1.1-13.2-.3-21.9 1.3-6.7 1.2-10.8 1.8-14.5 2.1-1.4.1-2.9.5-3.5.8-.5.4-1.9.3-3-.1-2.8-1-4.9-3.6-3.6-4.4.5-.4 1.2-.2 1.6.4.3.5 1.3 1 2.1 1s1.3-.4.9-.9c-.3-.6 1.4-2.8 3.7-5 3.8-3.7 4.7-4.1 9.8-4.2 3-.1 6.9-.1 8.7 0 1.7.1 4.4-.4 6-1.3 3.1-1.7 14.3-2.2 15.9-.7zM405.5 467c.3.5.1 1-.4 1-.6 0-1.1-.5-1.1-1 0-.6.2-1 .4-1 .3 0 .8.4 1.1 1zm-176.6 26.5c.1 3.6-.2 4.6-.9 3.5-.5-.8-.9-4-.9-7 .1-7 1.7-3.8 1.8 3.5zm-13.9 8c0 .8-.4 1.5-.9 1.5-1.3 0-2.2-1.6-1.4-2.4 1.1-1.1 2.3-.6 2.3.9zM339 543c0 .5-1.2 1-2.7 1-2.2 0-2.5-.2-1.3-1 2-1.3 4-1.3 4 0zm6 0c0 .5-.2 1-.4 1-.3 0-.8-.5-1.1-1-.3-.6-.1-1 .4-1 .6 0 1.1.4 1.1 1zm162 7c10.7 1.1 19.4 1.2 34 .2 9.4-.6 26.4-.7 35.3-.3 1.9.1 4.1 4.4 2.6 4.9-.5.2-.9 1.1-.9 1.9 0 .9.6 1.3 1.5.9 1.8-.7 1.8-.6.2 3.4-1.6 3.7-1.1 8 .9 8 1.8 0 1.8.4-.2 4.1-.8 1.7-1.3 3.3-1 3.7.3.3.6 0 .6-.7s.4-1 .9-.7c.9.6.4 4.3-.9 6.1-.4.5-1.1 2.4-1.5 4.2-.4 2.2-1.3 3.3-2.8 3.5-1.2.2-2 .6-1.8.9s-.6 1.4-1.8 2.4c-1.3 1-2.1 2.5-1.8 3.5.2.9-.4 2.8-1.5 4.1-1.4 1.6-1.8 1.8-1.4.6.3-.9.2-1.7-.3-1.7s-1.2 1.1-1.5 2.5c-.6 2.4-3.6 3.6-3.6 1.5 0-.6-1.7-2.8-3.7-4.9-5.5-5.6-8.3-9-8.3-10.1 0-1-14.2-8-16.4-8-.7 0-2.5-.9-3.9-2s-5.8-3.9-9.9-6.1c-4-2.3-8.6-5.3-10.3-6.6l-12.6-10.6c-1.1-.9-2.3-1.7-2.7-1.7-.5 0-1.9-1.2-3.3-2.6l-2.4-2.7 5 .7c2.8.4 8.8 1.1 13.5 1.6zm-44.6 15.9c1.1.4 1.5 1 .9 1.4-.5.3-1.9 0-2.9-.8-2-1.5-1.1-1.8 2-.6zm3.6 4.1c0 .5-.4 1-1 1a1.08 1.08 0 0 1-1-1c0-.6.5-1 1-1a.94.94 0 0 1 1 1zm-286.1 21.1c.6 1.8 1.1 4.3 1.1 5.6 0 2.2-.3 2.4-3.2 1.7-5-1-6-3.1-3.4-7.1 2.6-4.1 4.1-4.2 5.5-.2zM697 626.4c0 2.7-1.5 4.2-2.5 2.6-.8-1.3.3-5 1.6-5 .5 0 .9 1.1.9 2.4zm-255 18.2c0 .8-.4 1.2-1 .9-.5-.3-1-1-1-1.6 0-.5.5-.9 1-.9.6 0 1 .7 1 1.6zm26 17.4c0 .5-.5 1-1.1 1-.5 0-.7-.5-.4-1 .3-.6.8-1 1.1-1 .2 0 .4.4.4 1zm190 24.9c0 4.7-2.3 7.2-3.9 4.2-1.4-2.6-1.4-5.4.1-6.9 2.3-2.3 3.8-1.3 3.8 2.7zm-133.5 67c.3.5.1 1.2-.5 1.6-.5.3-1-.1-1-.9 0-1.8.6-2.1 1.5-.7zm-29.8 11.7c-.9.9-2.8-.6-2.1-1.8.4-.6 1-.6 1.7.1.6.6.8 1.3.4 1.7zm4.3-1.7c0 .6-.4 1.3-1 1.6-.5.3-1-.1-1-.9 0-.9.5-1.6 1-1.6.6 0 1 .4 1 .9zm-14 5.7c0 .8-.5 1.2-1 .9-.6-.4-.8-1.1-.5-1.6.9-1.4 1.5-1.1 1.5.7zm-31.4 5.1c-1.1 1.1-1.9-.6-1.1-2.4.8-1.7.8-1.7 1.2 0 .3 1 .2 2.1-.1 2.4zm60.4 4.9c0 .8-.4 1.2-1 .9-.5-.3-1-1-1-1.6 0-.5.5-.9 1-.9.6 0 1 .7 1 1.6zm2 3.4c0 .5-.2 1-.4 1-.3 0-.8-.5-1.1-1-.3-.6-.1-1 .4-1 .6 0 1.1.4 1.1 1zm11.2 1.2c.8-.6 1.9-.8 2.5-.4 1.3.8 1.2 6.2-.1 6.2-.5 0-.3.7.4 1.5.8 1 .9 1.5.1 1.5-.6 0-.8 1.1-.4 3 .3 1.6.1 3-.4 3s-.9 1-1 2.1c-.1 1.2-.9 2.9-1.8 3.9-1.1 1.2-1.4 2.6-.9 4.4.5 2 .2 2.6-1.1 2.6-1.2 0-1.6.7-1.3 3.2.3 3.4.7 3-8.6 7.5-2.1 1-4.8 2.8-5.9 4-1.7 1.6-2.6 1.9-4 1.1-1.5-.8-2-.5-2.4 1.1-.6 2.2-2.7 2.8-3.8 1.1s-2.5-1.1-3.5 1.5c-.7 1.8-1.7 2.5-3.6 2.5-1.5 0-3.2.8-3.9 1.7-1.1 1.5-1.8 1.5-5.2.5-2.2-.6-4.8-2.1-5.8-3.2-2.2-2.4-3.8-2.5-7.1-.4-2 1.4-3.2 1.5-6.2.6-2-.6-5.5-1.4-7.7-1.9-3.3-.7-4-1.2-4.1-3.3 0-1.4-.4-3.3-.8-4.2-.5-1.1-.2-3.3.7-5.5 1.2-3 2-3.7 4.3-3.8 7.6-.3 8-.5 9.5-3.8 1.1-2.6 1.9-3.1 4.2-2.9 1.9.2 2.7-.2 2.7-1.3 0-.8.6-1.5 1.4-1.5s1.6-.7 2-1.5c.3-.9 1.8-1.5 4-1.5 1.9 0 3.8-.4 4.1-1 .3-.5 2-.9 3.8-.7 2.6.2 3.3-.2 3.5-2 .2-1.5.8-2 1.8-1.6 1.7.6 4.6-2.6 3.9-4.5-.3-.8.6-1.2 2.6-1.2 1.8 0 2.8-.4 2.4-1-1.1-1.7.5-3.2 2.1-1.9 1.1.9 1.4.9 1.4-.1 0-.7.7-1 1.5-.6.9.3 1.5 0 1.5-.8s.6-1.6 1.3-1.9c1.5-.5 3.7.3 3.7 1.4 0 .4-.7.6-1.5.3-.8-.4-1.5-.1-1.5.5s.8 1.1 1.8 1.1 2.3.5 2.8 1c1.4 1.4 6.8-.5 5.9-2-.4-.6-1.1-.7-1.7-.4-.6.4-.8.2-.5-.4.4-.5 1.8-.9 3.2-.7 1.7.1 2.5-.3 2.5-1.4 0-1.3.2-1.4.9-.2.7 1.1 1.3 1.2 2.3.3zM305 283c0 .5.4 1 .9 1 .6 0 1.3-.5 1.6-1 .3-.6-.1-1-.9-1-.9 0-1.6.4-1.6 1zm-10.5 3c.3.5 1 1 1.6 1 .5 0 .9-.5.9-1 0-.6-.7-1-1.6-1-.8 0-1.2.4-.9 1z"/><use href="#B"/><use href="#C"/><path d="M553 324.5c-1.7 2.1-.9 2.7 1.3 1 1-.7 1.4-1.6.9-1.9s-1.5.1-2.2.9zm-8.6 13.4c.4.7 1.3 1 1.9.8s1.9.6 2.9 1.7c1.5 2 1.7 2 2.3.3.9-2.3.5-2.7-4-3.4-2.8-.5-3.6-.3-3.1.6zm16.6 15.9c0 .7-.5 1.2-1.1 1.2-.7 0-1.8.8-2.5 1.7-1 1.5-1.5 1.6-2.5.5-1.9-1.8-2.9-1.5-2.9 1.2 0 1.8.7 2.5 2.8 2.9 1.5.3 3.2.1 3.8-.4s1.4-.6 1.7-.2c.4.3.7.1.7-.5 0-.7-.4-1.2-1-1.2-2.1 0-.9-1.9 1.4-2.2s2.3-.5 1-2.2c-.8-1.1-1.4-1.4-1.4-.8zm-224 3.8c-2 .9-5.4 1.4-8 1.2-3.3-.3-4.9.1-6.3 1.5-1 1-2.2 1.5-2.8 1.1-.6-.3-1.8.1-2.7.9-.9.9-3 1.9-4.7 2.3-1.6.4-3.3 1.2-3.7 1.8s-1.3 1.1-2 1.2c-.7 0-2.3.2-3.4.2-1.2.1-2.4 1.1-2.7 2.1-.3 1.3-1.8 2.1-4.8 2.6-2.8.5-5.3 1.7-6.9 3.4-2.2 2.3-2.5 2.4-2.8.8-.3-1.4-1-1.7-2.5-1.3l-2.8.6c-.4 0-.9.9-1.2 2s-1.3 2.3-2.4 2.7c-1 .3-3.5 1.9-5.5 3.5-3.1 2.5-3.6 3.2-2.6 4.7.9 1.5.3 2.5-4.2 6.7-6 5.7-7 6.2-6.3 3.5.3-1 1.3-2.1 2.4-2.4 1-.3 1.9-1.3 1.9-2.2 0-1.5-.2-1.6-1.7-.4-1 .8-3 2.6-4.6 4.1-1.5 1.6-3.3 2.8-4 2.8-.8 0-1.7.3-2.1.7-.4.5-1.3.8-1.9.8-.7 0-1.3 1-1.5 2.1-.2 1.2-1.9 4-3.8 6.2-3.4 4-4.1 8.1-1.5 9 .7.2 0 1.7-1.9 3.8-1.6 1.9-3 4.2-2.9 5.2 0 1 .3 1.2.6.4.6-1.5 5.3-1.6 5.3 0 0 .7 1.9-.7 4.2-3 2.2-2.3 4.5-4.2 5.1-4.2.5 0 2.6-1.5 4.7-3.3 6.6-5.7 10.2-8.2 13.2-9 1.6-.4 3.9-1.7 5.1-2.8l3.7-3.3c1.9-1.6 14.3-6.8 15.6-6.5.5.1 2.5-.1 4.4-.4 1.9-.4 4.4-.9 5.5-1s2.6-.6 3.3-1.1c.7-.4 2.5-.5 4.1-.1 1.7.3 3.2.2 3.6-.4.9-1.5 3.7-1.4 7.3.5 3.3 1.6 5.2 1.2 5.2-1.1 0-1 1.1-1.3 3.9-1 3.4.3 3.9.1 3.4-1.3s-.3-1.5.8-.5c1.9 1.8 2.9 1.6 2.9-.7 0-2.2 2.5-2.8 3.3-.8.4.9.6.9.6.1.1-.6 1-.9 2.2-.6 1.9.5 2.1.3 1.7-2-.6-3.2.7-3.5 2.4-.7 1.7 2.6 3.8 2.6 3.1 0-.4-1.6-.2-1.9 1.1-1.4 1 .4 1.8 0 2.2-1 .9-2.5 5-2 5.9.6.6 2.3.6 2.3 1.8-.3 1-2.2 1.6-2.5 3.6-1.8 2.2.9 2.3.7 1.9-2.2l-.5-3.1 1.9 2.3 1.9 2.4-.6-2.3c-.6-2.2.8-3.1 2-1.2 1.1 1.8 2.3 1 1.8-1.3-.5-1.8-.3-2 .8-1 2.5 2.4 2.9 1.3.9-2.7-1.9-3.7-1.2-5.9.8-2.4.6 1.1 1.2 1.3 1.6.6.7-1.2-3.3-4.4-4.5-3.7-.4.3-1-.6-1.3-1.9-.7-2.9-8-7-11.1-6.2-1.2.3-2.5.3-2.8-.1-.4-.3-3.7-.7-7.4-.8-3.8 0-7.8-.6-9-1.3-2.6-1.4-2-1.5-6.3.4zm-80.7 44.9c-.3.9-.8 1.4-1 1.1-.3-.3-.2-.9.2-1.5.9-1.6 1.5-1.3.8.4zm-3.8 3c0 2.5-1.8 3.4-3 1.5-.9-1.5.2-4 1.7-4 .7 0 1.3 1.1 1.3 2.5zm3.5 4.4c-.5 1.1-1 2.8-1 3.9s-.8 2.2-1.7 2.6c-1 .3-2.4.9-3.2 1.2-1 .5-1.2.2-.8-.9.4-1-.1-2-1-2.6-1.4-.7-1.5-1.2-.5-2.4 1.5-1.7 5.2-2.9 5.2-1.7 0 .5-.4 1.2-1 1.5-.5.3-1 1.1-1 1.7 0 .7.6.6 1.5-.2.8-.7 1.5-1.8 1.5-2.5 0-1.1.9-1.9 2.8-2.4.1-.1-.2.8-.8 1.8zm119.2-45.8c.2.7 1 1.5 1.7 1.7.8.3 1.2-.1.9-.9-.2-.7-1-1.5-1.7-1.7-.8-.3-1.2.1-.9.9zm-109 25.9c0 1.4.2 1.9.5 1.2.2-.6.2-1.8 0-2.5-.3-.6-.5-.1-.5 1.3zM501 401.1c0 .5.5.7 1 .4.6-.3 1-.8 1-1.1 0-.2-.4-.4-1-.4-.5 0-1 .5-1 1.1z"/><use href="#B" x="-67" y="119"/><path d="M536.3 450.7c1.5.2 3.9.2 5.5 0 1.5-.2.2-.4-2.8-.4s-4.3.2-2.7.4zm-311.8 2.5c-2.7 1.5-6.5 5-6.5 6 0 2 4.4.5 7.1-2.3 4.1-4.4 3.8-6.2-.6-3.7zm-1.5 72.2c0 1.7 4.8 6.1 5.7 5.3.3-.4.1-1.8-.5-3.1-1.1-2.5-5.2-4.3-5.2-2.2zm111.5 59.4c.8 2.2-3.3 6.5-6.2 6.7-1.5 0-2.8.6-3.1 1.3-.2.7-1.8 1.9-3.6 2.6-2.1.9-3.9 2.7-5.2 5.2-1.6 3.4-1.9 3.6-2.2 1.6-.5-3-2.2-2.8-2.2.3 0 3.3-2.7 6.1-6.7 7-1.8.3-4.1 1.7-5.2 3.1-1 1.3-2.5 2.4-3.2 2.4-.8 0-2.3 1.2-3.4 2.6-2.2 2.9-5.7 6.4-10.4 10.6-1.7 1.5-2.7 2.9-2.2 3.2 1.3.8 7.1-.5 7.1-1.5 0-.5 1.3-.9 2.9-.9 3 0 5 2.8 3.6 5-.4.7.4 1 2.2.8 2.2-.2 2.8.1 2.7 1.5-.1 1.2.4 1.7 1.5 1.4.9-.2 1.5-.9 1.3-1.5-.3-1.6 1.6-5.2 2.8-5.2 1.5 0 6-4.6 6-6.2 0-.7 1.8-3.2 4-5.3s4-4.6 4-5.5 1.1-2.6 2.5-3.8 2.5-2.6 2.5-3.2c0-.5.6-1 1.3-1 1.5 0 5.7-4.5 5.7-6 0-.6.7-1 1.6-1 .8 0 1.2-.5.9-1-.3-.6.5-1.4 1.9-2 1.4-.5 2.6-1.6 2.6-2.4s1.1-2.3 2.5-3.4 2.5-2.9 2.5-4c0-1.7-.8-2.1-4.5-2.4-3.5-.2-4.4 0-4 1zm-8 12.2c-.3.5-1.1 1-1.6 1-.6 0-.7-.5-.4-1 .3-.6 1.1-1 1.6-1 .6 0 .7.4.4 1z"/><use href="#B" x="-183" y="310"/><path d="M364.5 618c.3.5.8 1 1.1 1 .2 0 .4-.5.4-1 0-.6-.5-1-1.1-1-.5 0-.7.4-.4 1zm4.8 6.7c-.3.7-1.1 1.3-1.9 1.3s-1.4.5-1.4 1.1c0 .7 1 .9 2.5.5 1.4-.4 2.5-.2 2.5.4 0 .5.7 1 1.5 1s1.5-.8 1.5-1.8.6-2.4 1.2-3c1-1 .6-1.2-2.1-1-1.8.1-3.6.8-3.8 1.5z"/><use href="#C" x="-173" y="304"/><path d="M375 631.5c-1 1.2-1 1.5.5 1.5 1.2 0 1.5.5 1.1 1.6-.4 1-.1 1.4.6 1.2 1.6-.6 1.7-5 .2-5.5-.6-.2-1.7.3-2.4 1.2z"/><use href="#B" x="-179" y="325"/><path d="M402 647c0 2.4 1.5 2.7 2.4.4.9-2.2.8-2.4-.9-2.4-.8 0-1.5.9-1.5 2z"/><use href="#B" x="-119" y="340"/><path d="M327.7 659.6c-.4.4-.7 1.4-.7 2.3 0 1.1.3 1.2 1.1.4.6-.6 1-1.6.7-2.3-.2-.6-.7-.8-1.1-.4zm5.3 12.9c0 .8.4 1.5 1 1.5.5 0 .7-.7.4-1.5-.4-.8-.8-1.5-1-1.5s-.4.7-.4 1.5zm66.5 27.4c-1.2 1.2-.3 2.1 2.3 2.1 3.8 0 7.2-1.1 7.2-2.2 0-.9-8.6-.9-9.5.1zm13.5.7c0 .9 1.8 1 10.3.5.9-.1 1.7-.5 1.7-1s-2.7-.9-6-.8c-3.4.1-6 .7-6 1.3zm52.6 1c-.4 1.5-.2 3.2.3 3.7.6.6 1.1 2.6 1.1 4.4 0 4.1 1.2 4.2 4.1.2 2.2-3.1 2.2-3.1.2-6.7-2.4-4.6-4.8-5.3-5.7-1.6zm-88.1 1.7c-1.7 3.2-1.7 3.5 0 6 2.3 3.6 5 3.5 6.4-.4.9-2.6.7-3.5-1.1-6-1.2-1.6-2.5-2.9-2.8-2.9-.4 0-1.5 1.5-2.5 3.3zm52-2.3c-.6 1 1.3 2.4 3.8 2.5 3 .3 2.9-1.2-.3-2.3-1.6-.6-3.2-.7-3.5-.2zm52.6 2.4c-1.4 1.7-.7 3.6 1.4 3.6 2.2 0 2.9-2 1.3-3.6-1.3-1.3-1.6-1.3-2.7 0z"/><use href="#B" x="-145" y="396"/><path d="M339.5 729c-.3.5-.2 1 .4 1 .5 0 1.3-.5 1.6-1 .3-.6.2-1-.4-1-.5 0-1.3.4-1.6 1zm26.5 5.4c0 1.4.5 2.6 1 2.6.6 0 1-.9 1-1.9 0-1.1-.4-2.3-1-2.6-.6-.4-1 .5-1 1.9zm33.7 15.5c1.2 5 2.4 5.1 4.1.3.9-2.7.8-2.9-1.9-2.9-2.6 0-2.8.3-2.2 2.6zm5.7 4.2c-3.2.9-4.9 3.2-3.8 5 .7 1.3 2.3 1.1 3.9-.4.8-.6 2.1-1.8 3-2.5 1.6-1.3 2.1-3.3.8-3.1-.5 0-2.2.5-3.9 1zm-103.8 2.8c-.4.7-.5 1.5-.2 1.8.9.9 1.9-.4 1.4-1.8-.4-1.1-.6-1.1-1.2 0zm121.6.5c.1 1 .8 1.7 1.3 1.7 1.5-.1 1.2-2.4-.3-2.9-.9-.3-1.3.2-1 1.2z"/><use href="#B" x="-91" y="458"/><path d="M266.5 772c-.3.5.1 1 1 1s1.3-.5 1-1c-.3-.6-.8-1-1-1s-.7.4-1 1zm15.5 5.5c0 .8.5 1.5 1 1.5.6 0 1-.7 1-1.5s-.4-1.5-1-1.5c-.5 0-1 .7-1 1.5zm106.7 18.2c-.4.3-.7 1.1-.7 1.7s.5.5 1.2-.2c.6-.6.9-1.4.7-1.7-.3-.3-.9-.2-1.2.2zm-53.6-280.9c-1.2 2.2-1.4 2.3-3.1.7s-2-1.5-4 .5c-1.5 1.5-2.5 1.9-3.2 1.2s-1.8-.6-3.5.5c-2.1 1.4-5.6 1.7-20.4 1.7-13.6 0-17.8.3-17.5 1.2.3.7-.2 1.5-1 1.8-2 .8-.7 2.8 1.4 2.5 1-.2 2.6 0 3.7.4 5.3 1.6 34.2 3.1 35 1.7.3-.5 1.4-.6 2.5-.3 2.1.5 4.2-.1 14.1-4.4 5-2.2 5.6-2.7 5.6-5.5 0-2.9-.1-3-3.8-2.4-2.5.4-3.9.2-4.1-.6-.3-.8-1-.4-1.7 1zm264.6-41.2c-.3.4.3 2.3 1.4 4.2 1.6 3.1 1.9 5.7 1.9 17.3 0 13.5-1.1 19.9-4.6 27.6-1.5 3.3-1 6.6 1 6 .6-.2 1.6-1.7 2.1-3.4.6-1.6 1.5-3.6 2.2-4.4 1.1-1.3 2.1-7.7 2.8-17 .5-6.5-1.5-24-3.1-27.1-1.5-2.9-2.8-4.1-3.7-3.2zm-99.8 42.3l-2.4 2 4 1.7c2.2.9 8.5 3.2 13.9 5.1 11.9 4 24.9 5.2 31.8 2.7 2.3-.8 5.5-1.2 7-.9 1.8.4 2.8.3 2.8-.5 0-.7.7-1 1.5-.6 1.8.6 4.5-.2 4.5-1.5 0-.5-.8-.9-1.7-.9-1 0-3.5-.6-5.7-1.4-2.4-.8-5.1-1.1-7.2-.6-1.8.4-3.6.5-3.9.2s-2.8-.7-5.6-.9c-2.7-.1-5.8-.7-6.9-1.3-1-.5-2.6-.7-3.4-.4-.9.4-2.3.1-3-.5-.8-.7-3.4-1.4-5.8-1.6-4.2-.4-5.3-.5-13.4-1.9-3.2-.6-4.5-.3-6.5 1.3zm12.5 276.8c.3.8.6 1.7.6 1.9s.7.4 1.5.4c2.3 0 1.8-2.7-.6-3.3-1.5-.4-1.9-.2-1.5 1z"/><use href="#B" x="-388" y="333"/><path d="M177.8 667.7c.7.3 1.6.2 1.9-.1.4-.3-.2-.6-1.3-.5-1.1 0-1.4.3-.6.6z"/><use href="#B" x="-357" y="400"/><defs ><path id="B" d="M541 308a1.08 1.08 0 0 0 1 1c.6 0 1-.5 1-1a.94.94 0 0 0-1-1c-.5 0-1 .4-1 1z"/><path id="C" d="M550.5 323c-.3.5-.1 1 .4 1 .6 0 1.1-.5 1.1-1 0-.6-.2-1-.4-1-.3 0-.8.4-1.1 1z"/></defs></svg>