<svg class="{{ include.classes }}" xmlns="http://www.w3.org/2000/svg" version="1.1" viewBox="-5.0 -10.0 110.0 135.0">
 <path d="m11.586 59.305c3.7305 1.4141 7.5625 2.5625 11.355 3.8125 6.9023 2.2773 11.602 6.7773 13.887 13.727 1.1953 3.6289 2.3281 7.2812 3.6016 10.883 1.5156 4.2891 4.2891 7.1055 9.125 7.2656 4.9805 0.16406 8.2734-2.1914 9.9297-6.8281 1.2852-3.5977 2.5078-7.2188 3.6719-10.855 2.2852-7.1523 6.9336-11.848 14.145-14.074 3.9805-1.2266 7.9492-2.5234 11.809-4.0781 3.9336-1.582 5.8828-4.7109 5.8945-8.9883 0.011719-4.3984-1.9727-7.4766-6.3242-9.2305-3.2188-1.2969-6.5078-2.4844-9.8555-3.3633-8.9414-2.3477-14.32-8.0234-16.637-16.883-0.78906-3.0156-1.8594-5.9727-2.9766-8.8867-1.6484-4.3047-4.7734-6.8672-9.4883-6.8047-4.707 0.0625-7.7734 2.707-9.3477 7.0234-1.4258 3.9141-2.6523 7.9062-3.9883 11.855-2.1484 6.3477-6.4141 10.633-12.723 12.832-3.9336 1.3711-7.9531 2.5078-11.855 3.9688-4.3164 1.6172-6.8438 4.8203-6.793 9.5078 0.035156 4.4492 2.4492 7.5547 6.5703 9.1172z"/>
</svg>