<svg class="{{ include.classes }}"
    xmlns="http://www.w3.org/2000/svg" viewBox="-5 -10 110 135"
    xmlns:v="https://vecta.io/nano">
    <path d="M11.586 59.305c3.731 1.414 7.562 2.563 11.355 3.813 6.902 2.277 11.602 6.777 13.887 13.727l3.602 10.883c1.516 4.289 4.289 7.106 9.125 7.266 4.98.164 8.273-2.191 9.93-6.828a344.54 344.54 0 0 0 3.672-10.855c2.285-7.152 6.934-11.848 14.145-14.074 3.981-1.227 7.949-2.523 11.809-4.078 3.934-1.582 5.883-4.711 5.894-8.988.012-4.398-1.973-7.477-6.324-9.23-3.219-1.297-6.508-2.484-9.856-3.363-8.941-2.348-14.32-8.023-16.637-16.883-.789-3.016-1.859-5.973-2.977-8.887-1.648-4.305-4.773-6.867-9.488-6.805-4.707.063-7.773 2.707-9.348 7.023-1.426 3.914-2.652 7.906-3.988 11.855-2.148 6.348-6.414 10.633-12.723 12.832-3.934 1.371-7.953 2.508-11.855 3.969-4.316 1.617-6.844 4.82-6.793 9.508.035 4.449 2.449 7.555 6.57 9.117z"/>
</svg>