<svg id="{{ include.id }}" class="{{ include.classes }}"
    xmlns="http://www.w3.org/2000/svg" viewBox="-5 -10 110 135"
    xmlns:v="https://vecta.io/nano">
    <path d="M53.75 12.5a3.75 3.75 0 1 0-7.5 0v10.676c1.227-.172 2.477-.258 3.75-.258s2.523.086 3.75.258zm-27.613 8.332l7.547 7.551a27.04 27.04 0 0 0-5.301 5.301l-7.551-7.547a3.75 3.75 0 1 1 5.305-5.305zM12.5 46.25h10.676c-.172 1.227-.258 2.477-.258 3.75s.086 2.523.258 3.75H12.5a3.75 3.75 0 1 1 0-7.5zm8.332 27.613l7.547-7.547c1.516 2.004 3.301 3.789 5.305 5.305l-7.547 7.547a3.75 3.75 0 1 1-5.305-5.305zM46.25 87.5V76.824c1.227.172 2.477.258 3.75.258s2.523-.086 3.75-.258V87.5a3.75 3.75 0 1 1-7.5 0zm27.613-8.332l-7.547-7.547c2.004-1.516 3.789-3.301 5.305-5.305l7.547 7.547a3.75 3.75 0 1 1-5.305 5.305zM87.5 53.75H76.824c.172-1.227.258-2.477.258-3.75s-.086-2.523-.258-3.75H87.5a3.75 3.75 0 1 1 0 7.5zm-8.332-27.613l-7.551 7.547a27.17 27.17 0 0 0-5.301-5.305l7.547-7.547a3.75 3.75 0 1 1 5.305 5.305zM31.25 50c0-10.355 8.395-18.75 18.75-18.75S68.75 39.645 68.75 50 60.356 68.75 50 68.75 31.25 60.356 31.25 50z" fill-rule="evenodd"/>
</svg>