<svg id="{{ include.id }}" class="{{ include.classes }}" xmlns="http://www.w3.org/2000/svg" version="1.1" viewBox="-5.0 -10.0 110.0 135.0">
 <path d="m53.75 12.5c0-2.0703-1.6797-3.75-3.75-3.75s-3.75 1.6797-3.75 3.75v10.676c1.2266-0.17188 2.4766-0.25781 3.75-0.25781s2.5234 0.085937 3.75 0.25781zm-27.613 8.332 7.5469 7.5508c-2.0039 1.5117-3.7891 3.2969-5.3008 5.3008l-7.5508-7.5469c-1.4648-1.4648-1.4648-3.8398 0-5.3047 1.4648-1.4648 3.8398-1.4648 5.3047 0zm-13.637 25.418h10.676c-0.17188 1.2266-0.25781 2.4766-0.25781 3.75s0.085937 2.5234 0.25781 3.75h-10.676c-2.0703 0-3.75-1.6797-3.75-3.75s1.6797-3.75 3.75-3.75zm8.332 27.613 7.5469-7.5469c1.5156 2.0039 3.3008 3.7891 5.3047 5.3047l-7.5469 7.5469c-1.4648 1.4648-3.8398 1.4648-5.3047 0-1.4648-1.4648-1.4648-3.8398 0-5.3047zm25.418 13.637v-10.676c1.2266 0.17188 2.4766 0.25781 3.75 0.25781s2.5234-0.085937 3.75-0.25781v10.676c0 2.0703-1.6797 3.75-3.75 3.75s-3.75-1.6797-3.75-3.75zm27.613-8.332-7.5469-7.5469c2.0039-1.5156 3.7891-3.3008 5.3047-5.3047l7.5469 7.5469c1.4648 1.4648 1.4648 3.8398 0 5.3047-1.4648 1.4648-3.8398 1.4648-5.3047 0zm13.637-25.418h-10.676c0.17188-1.2266 0.25781-2.4766 0.25781-3.75s-0.085937-2.5234-0.25781-3.75h10.676c2.0703 0 3.75 1.6797 3.75 3.75s-1.6797 3.75-3.75 3.75zm-8.332-27.613-7.5508 7.5469c-1.5117-2.0039-3.2969-3.7891-5.3008-5.3047l7.5469-7.5469c1.4648-1.4648 3.8398-1.4648 5.3047 0 1.4648 1.4648 1.4648 3.8398 0 5.3047zm-47.918 23.863c0-10.355 8.3945-18.75 18.75-18.75s18.75 8.3945 18.75 18.75-8.3945 18.75-18.75 18.75-18.75-8.3945-18.75-18.75z" fill-rule="evenodd"/>
</svg>