<?xml version="1.0" encoding="UTF-8" standalone="no"?>
<svg
   id="{{ include.id }}"
   class="{{ include.classes }}"
   viewBox="-5 -10 82.5 82.5"
   version="1.1"
   sodipodi:docname="sun.svg"
   width="82.5"
   height="82.5"
   inkscape:export-filename="sun.svg"
   inkscape:export-xdpi="96"
   inkscape:export-ydpi="96"
   inkscape:version="1.2.2 (b0a8486541, 2022-12-01)"
   xmlns:inkscape="http://www.inkscape.org/namespaces/inkscape"
   xmlns:sodipodi="http://sodipodi.sourceforge.net/DTD/sodipodi-0.dtd"
   xmlns="http://www.w3.org/2000/svg"
   xmlns:svg="http://www.w3.org/2000/svg">
  <defs
     id="defs404" />
  <sodipodi:namedview
     id="namedview402"
     pagecolor="#505050"
     bordercolor="#ffffff"
     borderopacity="1"
     inkscape:showpageshadow="0"
     inkscape:pageopacity="0"
     inkscape:pagecheckerboard="1"
     inkscape:deskcolor="#505050"
     showgrid="false"
     inkscape:zoom="6.0962963"
     inkscape:cx="29.608141"
     inkscape:cy="48.800122"
     inkscape:window-width="1918"
     inkscape:window-height="1014"
     inkscape:window-x="0"
     inkscape:window-y="48"
     inkscape:window-maximized="1"
     inkscape:current-layer="{{ include.id }}" />
  <path
     d="m 40,-6.25 a 3.75,3.75 0 1 0 -7.5,0 V 4.426 c 1.227,-0.172 2.477,-0.258 3.75,-0.258 1.273,0 2.523,0.086 3.75,0.258 z m -27.613,8.332 7.547,7.551 a 27.04,27.04 0 0 0 -5.301,5.301 L 7.082,7.387 A 3.7512015,3.7512015 0 1 1 12.387,2.082 Z M -1.25,27.5 H 9.426 c -0.172,1.227 -0.258,2.477 -0.258,3.75 0,1.273 0.086,2.523 0.258,3.75 H -1.25 a 3.75,3.75 0 1 1 0,-7.5 z m 8.332,27.613 7.547,-7.547 c 1.516,2.004 3.301,3.789 5.305,5.305 l -7.547,7.547 A 3.7512015,3.7512015 0 1 1 7.082,55.113 Z M 32.5,68.75 V 58.074 c 1.227,0.172 2.477,0.258 3.75,0.258 1.273,0 2.523,-0.086 3.75,-0.258 V 68.75 a 3.75,3.75 0 1 1 -7.5,0 z m 27.613,-8.332 -7.547,-7.547 c 2.004,-1.516 3.789,-3.301 5.305,-5.305 l 7.547,7.547 a 3.7512015,3.7512015 0 1 1 -5.305,5.305 z M 73.75,35 H 63.074 c 0.172,-1.227 0.258,-2.477 0.258,-3.75 0,-1.273 -0.086,-2.523 -0.258,-3.75 H 73.75 a 3.75,3.75 0 1 1 0,7.5 z M 65.418,7.387 57.867,14.934 A 27.17,27.17 0 0 0 52.566,9.629 l 7.547,-7.547 a 3.7512015,3.7512015 0 1 1 5.305,5.305 z M 17.5,31.25 C 17.5,20.895 25.895,12.5 36.25,12.5 46.605,12.5 55,20.895 55,31.25 55,41.605 46.606,50 36.25,50 25.894,50 17.5,41.606 17.5,31.25 Z"
     fill-rule="evenodd"
     id="path399" />
</svg>
